<svg xmlns="http://www.w3.org/2000/svg" width="62" height="62" viewBox="0 0 62 62">
  <defs>
    <style>
      .cls-1, .cls-2 {
        fill: none;
        stroke-width: 2px;
      }

      .cls-1 {
        stroke: #3639a4;
      }

      .cls-2 {
        stroke: #ffbd1b;
      }

      .cls-3 {
        fill: #01024e;
      }
    </style>
  </defs>
  <g id="Group_1" data-name="Group 1" transform="translate(-209 -497)">
    <circle id="Ellipse_1" data-name="Ellipse 1" class="cls-1" cx="30" cy="30" r="30" transform="translate(210 498)"/>
    <circle id="Ellipse_3" data-name="Ellipse 3" class="cls-2" cx="30" cy="30" r="30" transform="translate(210 498)"/>
    <path id="bxs-component" class="cls-3" d="M3.751,23.619l5.433,2.594a1.421,1.421,0,0,0,1.214,0l4.826-2.305,4.826,2.3a1.4,1.4,0,0,0,.607.137,1.413,1.413,0,0,0,.607-.136L26.7,23.619a1.294,1.294,0,0,0,.751-1.161V15.972a1.294,1.294,0,0,0-.751-1.161l-4.682-2.235V6.892a1.294,1.294,0,0,0-.751-1.161L15.832,3.136a1.415,1.415,0,0,0-1.216,0L9.183,5.731a1.3,1.3,0,0,0-.75,1.161v5.684L3.751,14.812A1.29,1.29,0,0,0,3,15.972v6.486A1.294,1.294,0,0,0,3.751,23.619Zm6.041-8.791L12.867,16.3,8.91,18.186,5.835,16.718Zm5.433-3.243L19.3,9.639v2.937l-4.075,1.946ZM23.734,16.3l-3.915,1.869L16.744,16.7l3.915-1.869ZM9.792,23.6l-.084-.04V20.707l4.159-1.987v2.937Zm10.867,0V20.665l4.075-1.946v2.937ZM15.225,5.748,18.3,7.216,14.386,9.085,11.31,7.617Z" transform="translate(225 513.001)"/>
  </g>
</svg>
