<svg xmlns="http://www.w3.org/2000/svg" width="62" height="62" viewBox="0 0 62 62">
  <defs>
    <style>
      .cls-1 {
        fill: #01024e;
      }

      .cls-2 {
        fill: none;
        stroke: #ffbd1b;
        stroke-width: 2px;
      }
    </style>
  </defs>
  <g id="Group_2" data-name="Group 2" transform="translate(-294 -497)">
    <path id="Icon_awesome-shipping-fast" data-name="Icon awesome-shipping-fast" class="cls-1" d="M24.375,16.5H23.75V11.433A2.5,2.5,0,0,0,23.2,9.844L19.3,5.161A1.733,1.733,0,0,0,17.973,4.5H16.25V2.25A2.089,2.089,0,0,0,14.375,0h-10A2.089,2.089,0,0,0,2.5,2.25V4.5H.313A.349.349,0,0,0,0,4.875v.75A.349.349,0,0,0,.313,6H10.938a.349.349,0,0,1,.312.375v.75a.349.349,0,0,1-.312.375H1.563a.349.349,0,0,0-.313.375v.75A.349.349,0,0,0,1.563,9H9.688A.349.349,0,0,1,10,9.375v.75a.349.349,0,0,1-.312.375H.313A.349.349,0,0,0,0,10.875v.75A.349.349,0,0,0,.313,12H8.438a.349.349,0,0,1,.313.375v.75a.349.349,0,0,1-.312.375H2.5v6c0,2.484,1.68,4.5,3.75,4.5S10,21.984,10,19.5h5c0,2.484,1.68,4.5,3.75,4.5s3.75-2.016,3.75-4.5h1.875A.7.7,0,0,0,25,18.75v-1.5A.7.7,0,0,0,24.375,16.5ZM6.25,21.75A2.089,2.089,0,0,1,4.375,19.5,2.089,2.089,0,0,1,6.25,17.25,2.089,2.089,0,0,1,8.125,19.5,2.089,2.089,0,0,1,6.25,21.75Zm12.5,0a2.089,2.089,0,0,1-1.875-2.25,2.089,2.089,0,0,1,1.875-2.25,2.089,2.089,0,0,1,1.875,2.25A2.089,2.089,0,0,1,18.75,21.75ZM21.875,12H16.25V6.75h1.723l3.9,4.683Z" transform="translate(312.7 516)"/>
    <path id="Path_5" data-name="Path 5" class="cls-2" d="M30,0A30,30,0,1,1,0,30,30,30,0,0,1,30,0Z" transform="translate(295 498)"/>
  </g>
</svg>
