<svg width="383" height="596" viewBox="0 0 383 596" fill="none" xmlns="http://www.w3.org/2000/svg">
<path d="M349.138 1.48536C357.568 -1.05325 366.315 4.00684 368.624 12.5022L375.437 37.5714L382.171 62.7009C384.46 71.2467 379.369 79.9978 370.915 82.608C324.95 96.8004 281.824 119.047 243.566 148.351C201.063 180.907 165.405 221.532 138.635 267.898C111.866 314.264 94.5124 365.458 87.5699 418.545C81.3208 466.329 83.6175 514.8 94.3091 561.704C96.2754 570.33 91.2426 579.115 82.6968 581.405L57.5673 588.138L32.3847 594.886C23.8596 597.17 15.0679 592.125 13.0476 583.533C-0.493078 525.953 -3.5189 466.354 4.16264 407.616C12.5351 343.594 33.4631 281.855 65.7465 225.938C98.0299 170.022 141.034 121.028 192.292 81.7661C239.335 45.733 292.482 18.5478 349.138 1.48536Z" fill="#f1b815"/>
</svg>
