<svg xmlns="http://www.w3.org/2000/svg" xmlns:xlink="http://www.w3.org/1999/xlink" width="705.82" height="612.869" viewBox="0 0 705.82 612.869">
  <defs>
    <style>
      .cls-1, .cls-2 {
        fill: #00024d;
      }

      .cls-1, .cls-14, .cls-24, .cls-7, .cls-8 {
        opacity: 0.1;
      }

      .cls-3, .cls-6 {
        opacity: 0.2;
      }

      .cls-4 {
        fill: #636780;
      }

      .cls-5 {
        opacity: 0.4;
      }

      .cls-12, .cls-17, .cls-6, .cls-7 {
        fill: #fff;
      }

      .cls-9 {
        fill: #dce0ed;
      }

      .cls-10 {
        fill: #f0f0f4;
      }

      .cls-11 {
        fill: none;
      }

      .cls-13 {
        fill: #a8a8a8;
      }

      .cls-15 {
        fill: url(#linear-gradient);
      }

      .cls-16 {
        opacity: 0.03;
      }

      .cls-17 {
        opacity: 0.3;
      }

      .cls-18 {
        fill: #3f3d56;
      }

      .cls-19 {
        fill: #f2f2f2;
      }

      .cls-20 {
        fill: #fbbebe;
      }

      .cls-21 {
        fill: #ff6f61;
      }

      .cls-22 {
        fill: #3a3768;
      }

      .cls-23 {
        fill: #e6e8ec;
      }

      .cls-24, .cls-25 {
        fill: #febd1b;
      }
    </style>
    <linearGradient id="linear-gradient" y1="0.5" x2="1" y2="0.5" gradientUnits="objectBoundingBox">
      <stop offset="0" stop-color="gray" stop-opacity="0.251"/>
      <stop offset="0.54" stop-color="gray" stop-opacity="0.122"/>
      <stop offset="1" stop-color="gray" stop-opacity="0.102"/>
    </linearGradient>
  </defs>
  <g id="Group_18" data-name="Group 18" transform="translate(-525.18 -8.339)">
    <g id="Group_16" data-name="Group 16" transform="translate(-118 -91)">
      <g id="Group_13" data-name="Group 13" transform="translate(686.019 99.339)">
        <path id="Path_159" data-name="Path 159" class="cls-1" d="M684.777,415.933c-15.792,37-47.876,61.736-81.113,78.051-44.754,21.971-94.039,30.686-142.646,27q-12.783-.958-25.478-3.085a293.027,293.027,0,0,1-85.186-28.188q-11.713-6.007-23.01-13.068a293.546,293.546,0,0,1-35.948-26.69q-4.3-3.726-8.479-7.641c-1.932-1.809-3.847-3.659-5.791-5.454a73.428,73.428,0,0,0-13.033-10.078,43.965,43.965,0,0,0-4.364-2.187c-14.912-6.439-32.107-4.009-47.632,1.013-11.8,3.787-23.29,9.018-35.1,12.751a104.607,104.607,0,0,1-16,3.861,75.491,75.491,0,0,1-35.966-3.557l-.993-.351q-2.5-.891-4.953-1.951l-.993-.432q-2.378-1.039-4.656-2.234l-.993-.513q-2.378-1.256-4.656-2.653c-.547-.324-1.088-.675-1.623-1.006A100.132,100.132,0,0,1,82.877,408.94c-.2-.223-.381-.452-.595-.675-.945-1.161-1.873-2.342-2.771-3.551-.333-.445-.666-.891-.993-1.35q-1.6-2.221-3.086-4.529c-.149-.223-.291-.452-.434-.675a102.137,102.137,0,0,1-10.031-20.588c-.083-.223-.161-.452-.232-.675q-1.189-3.476-2.17-7.067c-.268-1-.523-2.025-.749-3.024-.077-.3-.149-.6-.214-.9C58.351,351.248,58,336,58,320.839v-5.3c.1-24.523.428-49.464,3.615-73.65a3.464,3.464,0,0,1,.065-.5q1.6-12.213,4.346-24.179a195.467,195.467,0,0,1,7.319-24.5c7.331-19.575,17.992-37.388,29.83-53.9,29.788-41.52,68.894-76.424,114.665-89.445,49.32-14.06,104.135-.587,143.918,35.37,12.129,10.962,23.028,23.942,36.65,32.346,11.892,7.317,25.811,10.348,38.547,4.59,10.524-4.725,17.374-7.121,29.194-6.4a219.793,219.793,0,0,1,71.564,17c.928.385,1.855.783,2.777,1.181C600.37,159.479,651.855,211.15,678.6,277.551q1.064,2.633,2.063,5.306C696.615,325.125,702.37,374.717,684.777,415.933Z" transform="translate(-43.124 -43.893)"/>
        <path id="Path_160" data-name="Path 160" class="cls-1" d="M176.993,235.668V491.6a104.611,104.611,0,0,1-16,3.861,75.491,75.491,0,0,1-35.966-3.557l-.993-.351q-2.5-.891-4.953-1.951l-.993-.432q-2.378-1.04-4.656-2.234l-.993-.513q-2.378-1.256-4.656-2.653c-.547-.324-1.088-.675-1.623-1.006a100.131,100.131,0,0,1-23.284-20.581c-.2-.223-.381-.452-.595-.675-.945-1.161-1.873-2.342-2.771-3.551-.333-.445-.666-.891-.993-1.35q-1.6-2.221-3.086-4.529c-.149-.223-.291-.452-.434-.675a102.138,102.138,0,0,1-10.031-20.588c-.083-.223-.161-.452-.232-.675q-1.189-3.476-2.17-7.067c-.268-1-.523-2.025-.749-3.024-.077-.3-.149-.6-.214-.9-3.252-14.661-3.6-29.909-3.6-45.07v-5.3c.1-24.523.428-49.464,3.615-73.65a3.466,3.466,0,0,1,.065-.5q1.6-12.213,4.346-24.179h60.7v-34.79h12.135V207.73h26.055v27.938Z" transform="translate(-43.124 -97.139)"/>
        <path id="Path_161" data-name="Path 161" class="cls-1" d="M822.328,458.471c-15.792,37-47.876,61.736-81.113,78.051-44.754,21.971-94.039,30.686-142.646,27q-12.784-.958-25.478-3.085a293.025,293.025,0,0,1-85.186-28.188q-11.713-6.007-23.01-13.068a293.537,293.537,0,0,1-35.948-26.69q-4.3-3.726-8.479-7.641c-1.932-1.809-3.847-3.659-5.791-5.454a73.422,73.422,0,0,0-13.033-10.078,43.948,43.948,0,0,0-4.364-2.187V362.4H507.628v23.308h48.429V215.213h57v68.175h28.195V243.023h23.3V199.9h10.7V174.78c.928.385,1.855.783,2.777,1.181V199.9h10.429V243.05h23.29v40.365h34.325V437.2h54.559V325.36h17.582C834.166,367.663,839.921,417.255,822.328,458.471Z" transform="translate(-180.674 -86.431)"/>
        <rect id="Rectangle_157" data-name="Rectangle 157" class="cls-1" width="25.478" height="28.924" transform="translate(392.417 154.432)"/>
        <rect id="Rectangle_158" data-name="Rectangle 158" class="cls-1" width="25.478" height="28.924" transform="translate(392.417 214.393)"/>
        <rect id="Rectangle_159" data-name="Rectangle 159" class="cls-1" width="25.478" height="28.924" transform="translate(392.417 274.347)"/>
        <rect id="Rectangle_160" data-name="Rectangle 160" class="cls-1" width="25.478" height="28.924" transform="translate(392.417 334.307)"/>
        <rect id="Rectangle_161" data-name="Rectangle 161" class="cls-1" width="25.478" height="28.924" transform="translate(392.417 394.268)"/>
        <path id="Path_162" data-name="Path 162" class="cls-1" d="M718.448,716.81v22.842q-12.784-.958-25.478-3.085V716.81Z" transform="translate(-300.553 -262.588)"/>
        <rect id="Rectangle_162" data-name="Rectangle 162" class="cls-1" width="89.181" height="13.102" transform="translate(225.007 313.348)"/>
        <rect id="Rectangle_163" data-name="Rectangle 163" class="cls-1" width="89.181" height="13.102" transform="translate(225.007 353.133)"/>
        <path id="Path_163" data-name="Path 163" class="cls-1" d="M506.733,626v13.095h-65.9q-4.3-3.726-8.479-7.641c-1.932-1.809-3.847-3.658-5.791-5.454Z" transform="translate(-192.545 -233.075)"/>
        <path id="Path_164" data-name="Path 164" class="cls-1" d="M540.967,685v13.1H534.01Q522.3,692.06,511,685Z" transform="translate(-226.779 -252.25)"/>
        <rect id="Rectangle_164" data-name="Rectangle 164" class="cls-1" width="16.583" height="18.826" transform="translate(460.449 232.753)"/>
        <rect id="Rectangle_165" data-name="Rectangle 165" class="cls-1" width="16.583" height="18.826" transform="translate(101.322 145.016)"/>
        <rect id="Rectangle_166" data-name="Rectangle 166" class="cls-1" width="16.583" height="18.826" transform="translate(101.322 188.756)"/>
        <rect id="Rectangle_167" data-name="Rectangle 167" class="cls-1" width="16.583" height="18.826" transform="translate(101.322 232.496)"/>
        <rect id="Rectangle_168" data-name="Rectangle 168" class="cls-1" width="16.583" height="18.826" transform="translate(101.322 276.23)"/>
        <rect id="Rectangle_169" data-name="Rectangle 169" class="cls-1" width="16.583" height="18.826" transform="translate(101.322 319.97)"/>
        <rect id="Rectangle_170" data-name="Rectangle 170" class="cls-1" width="16.583" height="18.826" transform="translate(101.322 363.711)"/>
        <rect id="Rectangle_171" data-name="Rectangle 171" class="cls-1" width="16.583" height="18.826" transform="translate(523.772 232.753)"/>
        <rect id="Rectangle_172" data-name="Rectangle 172" class="cls-1" width="16.583" height="18.826" transform="translate(460.449 279.2)"/>
        <rect id="Rectangle_173" data-name="Rectangle 173" class="cls-1" width="16.583" height="18.826" transform="translate(523.772 279.2)"/>
        <rect id="Rectangle_174" data-name="Rectangle 174" class="cls-1" width="16.583" height="18.826" transform="translate(460.449 325.64)"/>
        <rect id="Rectangle_175" data-name="Rectangle 175" class="cls-1" width="16.583" height="18.826" transform="translate(523.772 325.64)"/>
        <rect id="Rectangle_176" data-name="Rectangle 176" class="cls-1" width="16.583" height="18.826" transform="translate(460.449 372.087)"/>
        <rect id="Rectangle_177" data-name="Rectangle 177" class="cls-1" width="16.583" height="18.826" transform="translate(523.772 372.087)"/>
        <rect id="Rectangle_178" data-name="Rectangle 178" class="cls-1" width="16.583" height="18.826" transform="translate(460.449 418.534)"/>
        <rect id="Rectangle_179" data-name="Rectangle 179" class="cls-1" width="16.583" height="18.826" transform="translate(523.772 418.534)"/>
        <path id="Path_165" data-name="Path 165" class="cls-1" d="M774.41,701.043V688.9h16.583v10.415Z" transform="translate(-313.961 -223.925)"/>
        <path id="Path_166" data-name="Path 166" class="cls-1" d="M64.06,336.48v10.8h63.424v-10.8Zm5.649,10.125H65.053v-9.45h4.656Zm5.649,0H70.7v-9.45h4.656Zm5.648,0H76.35v-9.45h4.656Zm5.649,0H82v-9.45h4.656Zm5.649,0H87.647v-9.45H92.3Zm5.649,0H93.3v-9.45h4.656Zm5.649,0H98.944v-9.45H103.6Zm5.649,0h-4.656v-9.45h4.656Zm5.649,0h-4.656v-9.45H114.9Zm5.649,0H115.89v-9.45h4.656Zm5.946,0h-4.953v-9.45h4.953Z" transform="translate(-45.58 -138.982)"/>
        <path id="Path_167" data-name="Path 167" class="cls-1" d="M64.06,382.94v10.766h63.424V382.94Zm5.649,10.091H65.053v-9.416h4.656Zm5.649,0H70.7v-9.416h4.656Zm5.648,0H76.35v-9.416h4.656Zm5.649,0H82v-9.416h4.656Zm5.649,0H87.647v-9.416H92.3Zm5.649,0H93.3v-9.416h4.656Zm5.649,0H98.944v-9.416H103.6Zm5.649,0h-4.656v-9.416h4.656Zm5.649,0h-4.656v-9.416H114.9Zm5.649,0H115.89v-9.416h4.656Zm5.946,0h-4.953v-9.416h4.953Z" transform="translate(-45.58 -154.082)"/>
        <path id="Path_168" data-name="Path 168" class="cls-1" d="M64.06,429.39v10.766h63.424V429.39Zm5.649,10.091H65.053v-9.416h4.656Zm5.649,0H70.7v-9.416h4.656Zm5.648,0H76.35v-9.416h4.656Zm5.649,0H82v-9.416h4.656Zm5.649,0H87.647v-9.416H92.3Zm5.649,0H93.3v-9.416h4.656Zm5.649,0H98.944v-9.416H103.6Zm5.649,0h-4.656v-9.416h4.656Zm5.649,0h-4.656v-9.416H114.9Zm5.649,0H115.89v-9.416h4.656Zm5.946,0h-4.953v-9.416h4.953Z" transform="translate(-45.58 -169.178)"/>
        <path id="Path_169" data-name="Path 169" class="cls-1" d="M64.06,475.84v10.8h63.424v-10.8Zm5.649,10.125H65.053v-9.45h4.656Zm5.649,0H70.7v-9.45h4.656Zm5.648,0H76.35v-9.45h4.656Zm5.649,0H82v-9.45h4.656Zm5.649,0H87.647v-9.45H92.3Zm5.649,0H93.3v-9.45h4.656Zm5.649,0H98.944v-9.45H103.6Zm5.649,0h-4.656v-9.45h4.656Zm5.649,0h-4.656v-9.45H114.9Zm5.649,0H115.89v-9.45h4.656Zm5.946,0h-4.953v-9.45h4.953Z" transform="translate(-45.58 -184.274)"/>
        <path id="Path_170" data-name="Path 170" class="cls-1" d="M64.47,522.29c.226,1.013.482,2.025.749,3.024v-2.349h4.656v9.45H67.389c.071.223.149.452.232.675h60.053v-10.8Zm11.053,10.125H70.868v-9.45h4.656Zm5.649,0H76.516v-9.45h4.656Zm5.649,0H82.165v-9.45H86.82Zm5.649,0H87.813v-9.45h4.656Zm5.649,0H93.462v-9.45h4.656Zm5.648,0H99.11v-9.45h4.656Zm5.649,0h-4.656v-9.45h4.656Zm5.649,0h-4.656v-9.45h4.656Zm5.648,0h-4.656v-9.45h4.656Zm5.946,0H121.7v-9.45h4.953Z" transform="translate(-45.747 -199.37)"/>
        <path id="Path_171" data-name="Path 171" class="cls-1" d="M86.64,568.74c.143.223.285.452.434.675H90.16v4.529c.327.452.66.9.993,1.35v-5.873h4.656v9.45H93.924a8.641,8.641,0,0,0,.595.675h42.15v-10.8Zm14.817,10.125H96.8v-9.45h4.656Zm5.648,0H102.45v-9.45h4.656Zm5.649,0H108.1v-9.45h4.656Zm5.649,0h-4.656v-9.45H118.4Zm5.648,0H119.4v-9.45h4.656Zm5.649,0h-4.656v-9.45H129.7Zm5.946,0h-4.953v-9.45h4.953Z" transform="translate(-54.735 -214.466)"/>
        <path id="Path_172" data-name="Path 172" class="cls-1" d="M139,615.19c.535.344,1.076.675,1.623,1.006v-.331h4.656v2.983l.993.513v-3.5h4.656V621.6l.993.432v-6.163h4.953v8.1l.993.351V615.19Z" transform="translate(-75.963 -229.562)"/>
        <path id="Path_173" data-name="Path 173" class="cls-1" d="M459.312,197.99s-14.169-.965-12.486,10.307a2.873,2.873,0,0,0,1.255,2.9s.03-.837,1.457-.553a5.575,5.575,0,0,0,1.54.088,3,3,0,0,0,1.879-.884h0s3.984-1.87,5.536-9.261c0,0,1.148-1.613,1.1-2.025l-2.378,1.161a5.471,5.471,0,0,1,.172,3.584s-.077-3.517-.535-3.429c-.1,0-1.243.675-1.243.675s1.4,3.415.345,5.893c0,0,.4-4.205-.785-5.643l-1.683,1.114s1.641,3.524.529,6.4c0,0,.286-4.408-.886-6.129l-1.522,1.35s1.54,3.476.595,5.859c0,0-.125-5.13-.933-5.522a10.405,10.405,0,0,0-1.54,1.883s1.058,2.525.4,3.854c0,0-.4-3.422-.731-3.436a12.117,12.117,0,0,0-1.469,3.821,9.054,9.054,0,0,1,1.147-4.05,3.867,3.867,0,0,0-2.039,1.195s.208-1.6,2.378-1.742a10.259,10.259,0,0,1,1.391-1.823,7.77,7.77,0,0,0-3.449.452s1.148-1.512,3.841-.83l1.51-1.39s-2.866-.439-4.055.034c0,0,1.379-1.35,4.43-.365l1.641-1.114a13.267,13.267,0,0,0-3.847-.378s1.516-.925,4.323.081l1.189-.6s-1.784-.391-2.283-.452-.547-.229-.547-.229a5.462,5.462,0,0,1,3.318.418A15.373,15.373,0,0,0,459.312,197.99Z" transform="translate(-200.705 -93.967)"/>
        <path id="Path_174" data-name="Path 174" class="cls-1" d="M404.541,279.168s-4.84,15.154,5.155,16.538a2.223,2.223,0,0,0,2.806-.547s-.7-.27-.054-1.741a8.281,8.281,0,0,0,.505-1.654,4.078,4.078,0,0,0-.208-2.295h0s-.446-4.867-6.255-8.654c0,0-1.035-1.708-1.4-1.775l.3,2.93a3.872,3.872,0,0,1,3.074.83s-2.973-.911-3.05-.391c0,.108.22,1.546.22,1.546s3.282-.56,5.078,1.3c0,0-3.437-1.634-4.994-.749l.464,2.147s3.449-.79,5.559,1.242c0,0-3.645-1.566-5.429-.776l.708,2.025s3.371-.675,5.119,1.013c0,0-4.37-1.35-4.929-.554a11.014,11.014,0,0,0,1.154,2.207s2.432-.432,3.371.675c0,0-3-.533-3.11-.176a10.715,10.715,0,0,0,2.806,2.7,7.315,7.315,0,0,1-3.086-2.39,5.109,5.109,0,0,0,.434,2.552s-1.3-.675-.8-3.065a11.127,11.127,0,0,1-1.148-2.025,11.085,11.085,0,0,0-.595,3.875s-.957-1.674.392-4.415l-.755-2.025a14.919,14.919,0,0,0-1.1,4.388s-.737-1.876.951-4.921l-.476-2.1a18.091,18.091,0,0,0-1.409,4.05,7.4,7.4,0,0,1,1.3-4.685l-.172-1.451s-.838,1.809-1.035,2.356-.345.533-.345.533a7.427,7.427,0,0,1,1.3-3.49A18.878,18.878,0,0,0,404.541,279.168Z" transform="translate(-183.143 -120.315)"/>
        <path id="Path_175" data-name="Path 175" class="cls-1" d="M562.58,260.255s-4.846,15.147,5.155,16.531a2.2,2.2,0,0,0,2.8-.547s-.7-.263-.053-1.742a8.382,8.382,0,0,0,.511-1.647,4.106,4.106,0,0,0-.214-2.3h0s-.446-4.867-6.249-8.654c0,0-1.034-1.7-1.4-1.775l.3,2.936a3.955,3.955,0,0,1,3.086.83s-2.973-.918-3.05-.392c0,.108.22,1.546.22,1.546s3.282-.56,5.072,1.3c0,0-3.437-1.634-4.989-.749l.464,2.147s3.443-.783,5.553,1.242c0,0-3.645-1.559-5.422-.776l.708,2.025s3.371-.675,5.119,1.006c0,0-4.376-1.35-4.929-.554a11.02,11.02,0,0,0,1.153,2.214s2.432-.439,3.365.675c0,0-3-.533-3.11-.182a10.775,10.775,0,0,0,2.812,2.7,7.324,7.324,0,0,1-3.086-2.4,5.064,5.064,0,0,0,.434,2.558s-1.3-.675-.8-3.071a10.588,10.588,0,0,1-1.142-2.025,10.956,10.956,0,0,0-.595,3.881s-.951-1.674.392-4.415l-.749-2.025a15.065,15.065,0,0,0-1.106,4.394s-.737-1.883.951-4.927l-.47-2.1a18.23,18.23,0,0,0-1.409,4.05,7.365,7.365,0,0,1,1.29-4.685l-.173-1.444s-.832,1.809-1.034,2.356-.339.527-.339.527a7.461,7.461,0,0,1,1.29-3.49A19.318,19.318,0,0,0,562.58,260.255Z" transform="translate(-247.214 -114.166)"/>
        <path id="Path_176" data-name="Path 176" class="cls-1" d="M336.671,443.735s-4.84,15.154,5.155,16.531a2.213,2.213,0,0,0,2.806-.547s-.7-.263-.053-1.735a8.028,8.028,0,0,0,.505-1.654,4.1,4.1,0,0,0-.208-2.3h0s-.446-4.867-6.249-8.654c0,0-1.04-1.7-1.4-1.775l.3,2.936a3.887,3.887,0,0,1,3.08.83s-2.973-.918-3.056-.392c0,.108.22,1.546.22,1.546s3.282-.56,5.078,1.3c0,0-3.437-1.634-4.994-.749l.47,2.146s3.443-.783,5.553,1.242c0,0-3.645-1.559-5.428-.776l.707,2.025s3.371-.675,5.119,1.006c0,0-4.37-1.35-4.929-.554a10.807,10.807,0,0,0,1.159,2.214s2.426-.439,3.365.675c0,0-3-.533-3.11-.182a10.716,10.716,0,0,0,2.806,2.7,7.327,7.327,0,0,1-3.08-2.4,5.1,5.1,0,0,0,.428,2.558s-1.29-.675-.8-3.071a10.9,10.9,0,0,1-1.147-2.025,11.136,11.136,0,0,0-.595,3.881s-.951-1.674.392-4.415l-.749-2.025a15.06,15.06,0,0,0-1.106,4.394s-.737-1.883.951-4.921l-.476-2.106a18.229,18.229,0,0,0-1.409,4.05,7.4,7.4,0,0,1,1.3-4.684l-.172-1.445s-.838,1.809-1.035,2.356-.345.526-.345.526a7.507,7.507,0,0,1,1.3-3.49A18.62,18.62,0,0,0,336.671,443.735Z" transform="translate(-155.627 -173.796)"/>
        <path id="Path_177" data-name="Path 177" class="cls-1" d="M304.349,232.138s-4.846,15.154,5.149,16.538a2.223,2.223,0,0,0,2.806-.547s-.7-.27-.053-1.742a7.9,7.9,0,0,0,.505-1.654,4.108,4.108,0,0,0-.208-2.3h0s-.446-4.867-6.249-8.647c0,0-1.035-1.708-1.4-1.775l.3,2.93a3.887,3.887,0,0,1,3.08.83s-2.973-.911-3.05-.392c0,.108.22,1.546.22,1.546s3.276-.56,5.072,1.3c0,0-3.437-1.627-4.989-.749l.464,2.153s3.443-.79,5.553,1.242c0,0-3.645-1.566-5.423-.783l.708,2.025s3.371-.675,5.113,1.006c0,0-4.37-1.35-4.929-.547a10.792,10.792,0,0,0,1.159,2.207s2.426-.432,3.365.675c0,0-3-.533-3.11-.176a10.818,10.818,0,0,0,2.806,2.7,7.28,7.28,0,0,1-3.08-2.389,5.042,5.042,0,0,0,.434,2.552s-1.3-.675-.8-3.065a11.128,11.128,0,0,1-1.148-2.025,11.138,11.138,0,0,0-.595,3.881s-.951-1.674.393-4.415l-.749-2.025a15.062,15.062,0,0,0-1.106,4.388s-.737-1.877.951-4.921l-.476-2.1a18.409,18.409,0,0,0-1.409,4.05,7.393,7.393,0,0,1,1.3-4.685l-.172-1.451s-.832,1.809-1.035,2.356-.345.526-.345.526a7.507,7.507,0,0,1,1.3-3.49A19.484,19.484,0,0,0,304.349,232.138Z" transform="translate(-142.522 -105.03)"/>
        <path id="Path_178" data-name="Path 178" class="cls-1" d="M365.58,354.165s3.74,15.525,12.605,10.125a2.608,2.608,0,0,0,2.016-2.282s-.708.243-.928-1.384a8.823,8.823,0,0,0-.422-1.688,3.582,3.582,0,0,0-1.344-1.741h0s-2.836-3.679-9.513-2.977c0,0-1.712-.716-2.039-.533l1.73,2.2a4.133,4.133,0,0,1,2.937-1.35s-2.908,1.208-2.687,1.674c.042.1.963,1.12.963,1.12s2.378-2.605,4.8-2.261c0,0-3.639.918-4.459,2.653l1.475,1.458s2.408-2.9,5.167-2.626c0,0-3.77,1.107-4.828,2.916l1.617,1.208s2.378-2.774,4.691-2.531c0,0-4.245,1.782-4.3,2.774a8.667,8.667,0,0,0,2.063,1.053s1.784-1.944,3.086-1.667c0,0-2.723,1.526-2.634,1.89a9.38,9.38,0,0,0,3.657.351,6.39,6.39,0,0,1-3.734.061,4.321,4.321,0,0,0,1.653,1.809s-1.4.29-2.212-1.985a8.668,8.668,0,0,1-1.968-.911,10.6,10.6,0,0,0,1.481,3.557s-1.629-.743-1.92-3.861l-1.647-1.174a15.451,15.451,0,0,0,1.332,4.313s-1.558-1.053-1.724-4.644l-1.457-1.4a18.608,18.608,0,0,0,.922,4.253s-1.261-1.35-1.326-4.678l-.874-1.067s.238,2.025.351,2.6,0,.675,0,.675a7.7,7.7,0,0,1-.714-3.7A16.234,16.234,0,0,0,365.58,354.165Z" transform="translate(-167.823 -144.565)"/>
        <path id="Path_179" data-name="Path 179" class="cls-1" d="M536.21,374.755s3.74,15.525,12.611,10.125a2.6,2.6,0,0,0,2.01-2.281s-.7.243-.928-1.384a8.021,8.021,0,0,0-.422-1.687,3.565,3.565,0,0,0-1.338-1.742h0s-2.836-3.679-9.513-2.977c0,0-1.713-.715-2.045-.533l1.736,2.2a4.132,4.132,0,0,1,2.937-1.35s-2.908,1.208-2.693,1.681c.042.094.963,1.114.963,1.114s2.378-2.606,4.8-2.261c0,0-3.633.918-4.453,2.653l1.469,1.458s2.414-2.9,5.167-2.626c0,0-3.77,1.107-4.828,2.916l1.617,1.208s2.378-2.774,4.7-2.531c0,0-4.245,1.782-4.311,2.781a8.763,8.763,0,0,0,2.069,1.046s1.784-1.944,3.08-1.667c0,0-2.723,1.532-2.628,1.89a9.381,9.381,0,0,0,3.657.351,6.39,6.39,0,0,1-3.734.061,4.278,4.278,0,0,0,1.653,1.809s-1.4.29-2.218-1.985a8.664,8.664,0,0,1-1.968-.911,10.73,10.73,0,0,0,1.486,3.564s-1.629-.749-1.92-3.868l-1.647-1.174a15.373,15.373,0,0,0,1.326,4.313s-1.558-1.053-1.724-4.644l-1.451-1.4a18.828,18.828,0,0,0,.916,4.253s-1.26-1.35-1.32-4.678l-.874-1.066s.238,2.025.351,2.6,0,.675,0,.675a7.7,7.7,0,0,1-.714-3.7S536.347,374.613,536.21,374.755Z" transform="translate(-236.999 -151.256)"/>
        <path id="Path_180" data-name="Path 180" class="cls-2" d="M922.97,665.312l5.987,7.175,9.5-18.995-.856-2.133Z" transform="translate(-374.19 -211.725)"/>
        <path id="Path_181" data-name="Path 181" class="cls-3" d="M922.97,665.312l5.987,7.175,9.5-18.995-.856-2.133Z" transform="translate(-374.19 -211.725)"/>
        <path id="Path_182" data-name="Path 182" class="cls-4" d="M195.143,649.4c0,36.045-21.744,43.693-43.535,43.693s-34.058-30.375-34.058-66.434,17.665-65.273,39.456-65.273S195.143,613.358,195.143,649.4Z" transform="translate(-67.266 -212.077)"/>
        <path id="Path_183" data-name="Path 183" class="cls-3" d="M195.143,649.4c0,36.045-21.744,43.693-43.535,43.693s-34.058-30.375-34.058-66.434,17.665-65.273,39.456-65.273S195.143,613.358,195.143,649.4Z" transform="translate(-67.266 -212.077)"/>
        <path id="Path_184" data-name="Path 184" class="cls-4" d="M179.365,628.386c0,36.045-14,65.273-31.263,65.273s-31.947-29.228-31.947-65.273c0-4.981-.678-9.828-.172-14.486,3.157-29.072,17.243-50.781,32.107-50.781C165.368,563.12,179.365,592.341,179.365,628.386Z" transform="translate(-66.555 -212.639)"/>
        <path id="Path_185" data-name="Path 185" class="cls-2" d="M192.849,420.849s-27.4,34.884-36.109,63.957l236.643,29.66,126.765-29.66s-50.206-68.3-63.775-70.936S192.849,420.849,192.849,420.849Z" transform="translate(-83.155 -163.985)"/>
        <path id="Path_186" data-name="Path 186" class="cls-5" d="M192.849,420.849s-27.4,34.884-36.109,63.957l236.643,29.66,126.765-29.66s-50.206-68.3-63.775-70.936S192.849,420.849,192.849,420.849Z" transform="translate(-83.155 -163.985)"/>
        <path id="Path_187" data-name="Path 187" class="cls-2" d="M476.53,509.216l37.982,120.974V599.572L525.083,565.3l29.289-14.722L591.51,569.7l13.283,4.711,1.159-27.9L561.8,521.8l-20.555-11.2L494.2,505.942l-12.98-2.633Z" transform="translate(-193.195 -163.609)"/>
        <path id="Path_188" data-name="Path 188" class="cls-2" d="M532.9,565.9l34.557,4.5c-1.57-15.667,8.675-15.667,8.675-15.667l-34.569-6.791H525.43" transform="translate(-232.629 -207.706)"/>
        <path id="Path_189" data-name="Path 189" class="cls-4" d="M570.353,715.38h24.5l70.939-2.7s1.534,15.356,20.216,11.745c0,0,10.286.749,11.392-5.6s-23.426-64.983-23.426-64.983L640.526,625.5,610.2,617.14l-21.767,7.27L574.6,649.385l-8.7,34.189Z" transform="translate(-249.036 -230.196)"/>
        <path id="Path_190" data-name="Path 190" class="cls-3" d="M570.353,715.38h24.5l70.939-2.7s1.534,15.356,20.216,11.745c0,0,10.286.749,11.392-5.6s-23.426-64.983-23.426-64.983L640.526,625.5,610.2,617.14l-21.767,7.27L574.6,649.385l-8.7,34.189Z" transform="translate(-249.036 -230.196)"/>
        <path id="Path_191" data-name="Path 191" class="cls-2" d="M208.955,435.818c-3.508,3.254-14.591,14.924-23.825,39.6a6.688,6.688,0,0,0,.268,5.311,5.284,5.284,0,0,0,3.894,2.958l55.641,8.188c4.248.628,8.233-2.471,9.252-7.2l9.781-45.3a5,5,0,0,0-.758-3.906,3.816,3.816,0,0,0-3.19-1.7L211.4,434.806A3.671,3.671,0,0,0,208.955,435.818Z" transform="translate(-94.492 -170.604)"/>
        <path id="Path_192" data-name="Path 192" class="cls-6" d="M208.955,435.818c-3.508,3.254-14.591,14.924-23.825,39.6a6.688,6.688,0,0,0,.268,5.311,5.284,5.284,0,0,0,3.894,2.958l55.641,8.188c4.248.628,8.233-2.471,9.252-7.2l9.781-45.3a5,5,0,0,0-.758-3.906,3.816,3.816,0,0,0-3.19-1.7L211.4,434.806A3.671,3.671,0,0,0,208.955,435.818Z" transform="translate(-94.492 -170.604)"/>
        <path id="Path_193" data-name="Path 193" class="cls-2" d="M349.3,433.3l62.657-.675c4.513-.047,8.556,3.375,10.078,8.6L441.578,491.6c1.73,5.9-2.01,12.042-7.135,11.7l-91.458-6.838c-7.587-.5-12.956-9.281-11.2-18.333l6.63-34.2C339.607,437.753,344.1,433.359,349.3,433.3Z" transform="translate(-153.985 -170.231)"/>
        <path id="Path_194" data-name="Path 194" class="cls-6" d="M349.3,433.3l62.657-.675c4.513-.047,8.556,3.375,10.078,8.6L441.578,491.6c1.73,5.9-2.01,12.042-7.135,11.7l-91.458-6.838c-7.587-.5-12.956-9.281-11.2-18.333l6.63-34.2C339.607,437.753,344.1,433.359,349.3,433.3Z" transform="translate(-153.985 -170.231)"/>
        <path id="Path_195" data-name="Path 195" class="cls-2" d="M522.4,428.709c17.13-.351,62.526-1.823,85.108-7.729,0,0,38.755,33.143,50.367,58.145,0,0-60.409,16.693-102.131,18.954-6.324.331-12.213-3.653-14.966-10.125l-22.184-52.191a5.482,5.482,0,0,1,.2-4.713A4.244,4.244,0,0,1,522.4,428.709Z" transform="translate(-229.678 -166.445)"/>
        <path id="Path_196" data-name="Path 196" class="cls-6" d="M522.4,428.709c17.13-.351,62.526-1.823,85.108-7.729,0,0,38.755,33.143,50.367,58.145,0,0-60.409,16.693-102.131,18.954-6.324.331-12.213-3.653-14.966-10.125l-22.184-52.191a5.482,5.482,0,0,1,.2-4.713A4.244,4.244,0,0,1,522.4,428.709Z" transform="translate(-229.678 -166.445)"/>
        <path id="Path_197" data-name="Path 197" class="cls-7" d="M559.759,442.691c7.135-.142,21.054-.56,34.646-1.714,20.291-1.756,40.138,7.356,53.649,24.631l.44.567a10.623,10.623,0,0,1,1.635,9.349,8.936,8.936,0,0,1-6.261,6.351c-15,3.652-40.538,9.227-60.255,10.307-4.537.26-8.77-2.591-10.744-7.236l-15.828-37.24a3.912,3.912,0,0,1,.151-3.351A3.027,3.027,0,0,1,559.759,442.691Z" transform="translate(-245.321 -172.874)"/>
        <path id="Path_198" data-name="Path 198" class="cls-2" d="M390.623,663.263v18.6L209.478,650.472c-8.877-3.49-14.175-1.35-14.175-1.35-6.54-3.625-11.3-17.766-11.434-18.225h0l3.419-11.239-27.767-52.137-36.941,1.741c5.809-52.725,22.535-55.242,22.535-55.242l217.022,22.869Z" transform="translate(-69.306 -196.682)"/>
        <path id="Path_199" data-name="Path 199" class="cls-8" d="M495.625,563.486c-1.421,1.769-4.019,3.375-8.812,3.227-7.343-.2-8.734-7.317-8.919-11.563a22.563,22.563,0,0,1,.077-3.118l9.62-3.341,1.968,2.086,5.809,6.176A5.122,5.122,0,0,1,495.625,563.486Z" transform="translate(-213.348 -207.95)"/>
        <path id="Path_200" data-name="Path 200" class="cls-9" d="M495.625,562.626c-1.421,1.769-4.019,3.375-8.812,3.227-7.343-.2-8.734-7.317-8.919-11.563a22.563,22.563,0,0,1,.077-3.118l9.62-3.341,1.968,2.086,5.809,6.176A5.122,5.122,0,0,1,495.625,562.626Z" transform="translate(-213.348 -207.67)"/>
        <path id="Path_201" data-name="Path 201" class="cls-8" d="M489.57,549.916a7.587,7.587,0,0,1-4.87,4.523l-6.8-.148a22.544,22.544,0,0,1,.077-3.118l9.62-3.341Z" transform="translate(-213.352 -207.67)"/>
        <path id="Path_202" data-name="Path 202" class="cls-10" d="M448.144,510.53s-15.364,2.336-11.267,18.1c3.1,11.948,10.031,12.751,13.206,12.447a46.366,46.366,0,0,1,5.559-.229l12.147.277s6.861-1.816,4.941-9.666S461.974,509.22,448.144,510.53Z" transform="translate(-196.446 -195.521)"/>
        <ellipse id="Ellipse_24" data-name="Ellipse 24" class="cls-3" cx="7.087" cy="10.469" rx="7.087" ry="10.469" transform="translate(161.423 341.753)"/>
        <path id="Path_432" data-name="Path 432" class="cls-8" d="M3.111.028,23.429.318A3.462,3.462,0,0,1,26.6,3.9v.007A3.246,3.246,0,0,1,23.519,7.4L3.2,7.113A3.462,3.462,0,0,1,.03,3.53V3.523A3.246,3.246,0,0,1,3.111.028Z" transform="translate(157.447 347.526) rotate(6.09)"/>
        <path id="Path_433" data-name="Path 433" class="cls-10" d="M3.111.028,23.429.318A3.462,3.462,0,0,1,26.6,3.9v.007A3.246,3.246,0,0,1,23.519,7.4L3.2,7.113A3.462,3.462,0,0,1,.03,3.53V3.523A3.246,3.246,0,0,1,3.111.028Z" transform="translate(157.447 346.942) rotate(6.09)"/>
        <path id="Path_203" data-name="Path 203" class="cls-8" d="M115.483,636.7s-12.718-14.249,2.729-48.546c0,0,19.805-34.02,50.539,3.2,0,0,17.671,22.383,22.79,58.145l-12.034.29s-11.529-63.383-45.331-60.183C134.177,589.6,109.591,594.541,115.483,636.7Z" transform="translate(-64.433 -216.156)"/>
        <path id="Path_204" data-name="Path 204" class="cls-8" d="M114.641,639.28s-12.724-14.243,2.729-48.553c0,0,19.805-34.013,50.539,3.2,0,0,17.671,22.39,22.8,58.145l-12.04.29s-11.541-63.369-45.343-60.177C133.323,592.185,108.737,597.126,114.641,639.28Z" transform="translate(-64.09 -216.993)"/>
        <path id="Path_205" data-name="Path 205" class="cls-2" d="M114.641,637.56s-12.724-14.249,2.729-48.553c0,0,19.805-34.013,50.539,3.2,0,0,17.671,22.383,22.8,58.145l-12.04.29s-11.541-63.376-45.343-60.183C133.323,590.459,108.737,595.406,114.641,637.56Z" transform="translate(-64.09 -216.434)"/>
        <path id="Path_206" data-name="Path 206" class="cls-3" d="M114.641,637.56s-12.724-14.249,2.729-48.553c0,0,19.805-34.013,50.539,3.2,0,0,17.671,22.383,22.8,58.145l-12.04.29s-11.541-63.376-45.343-60.183C133.323,590.459,108.737,595.406,114.641,637.56Z" transform="translate(-64.09 -216.434)"/>
        <path id="Path_207" data-name="Path 207" class="cls-11" d="M432.413,719.4V738L251.269,706.605c-8.877-3.49-14.175-1.35-14.175-1.35-6.54-3.625-11.3-17.766-11.434-18.225h0l12.04-.29,34.831,5.522L399.123,712.9s22.451,2.909,23.73,4.05S432.413,719.4,432.413,719.4Z" transform="translate(-111.096 -252.815)"/>
        <path id="Path_208" data-name="Path 208" class="cls-8" d="M432.413,718.534v18.6l-181.145-31.4c-8.877-3.483-14.175-1.35-14.175-1.35-6.54-3.625-11.3-17.766-11.434-18.225h0l12.04-.29,34.831,5.522,126.592,20.642s22.451,2.909,23.73,4.05S432.413,718.534,432.413,718.534Z" transform="translate(-111.096 -252.533)"/>
        <path id="Path_209" data-name="Path 209" class="cls-2" d="M432.413,719.4V738L251.269,706.605c-8.877-3.49-14.175-1.35-14.175-1.35-6.54-3.625-11.3-17.766-11.434-18.225h0l12.04-.29,34.831,5.522L399.123,712.9s22.451,2.909,23.73,4.05S432.413,719.4,432.413,719.4Z" transform="translate(-111.096 -252.815)"/>
        <path id="Path_210" data-name="Path 210" class="cls-3" d="M432.413,719.4V738L251.269,706.605c-8.877-3.49-14.175-1.35-14.175-1.35-6.54-3.625-11.3-17.766-11.434-18.225h0l12.04-.29,34.831,5.522L399.123,712.9s22.451,2.909,23.73,4.05S432.413,719.4,432.413,719.4Z" transform="translate(-111.096 -252.815)"/>
        <path id="Path_211" data-name="Path 211" class="cls-11" d="M880.21,633.75s-60.439,34.891-134.97,31.4c0,0-16.755.938-17.921-.8s4.323,7.331,4.323,7.331,2.069-2.457,4.12-2.457,11.428.79,11.428.79,107.143-5.15,134.547-32.771Z" transform="translate(-314.413 -235.594)"/>
        <path id="Path_212" data-name="Path 212" class="cls-3" d="M297.474,640.449c-11.255-41.027-10.655-69.64-8.17-86.4,2.7-18.225,8.158-26.818,8.211-26.9l.41.344c-.054.081-5.446,8.613-8.122,26.7-2.473,16.727-3.068,45.192,8.164,86.11Z" transform="translate(-136.295 -200.949)"/>
        <path id="Path_213" data-name="Path 213" class="cls-2" d="M811.135,618.675c.452,1.91,1.5,7.189-.166,8.613a7.589,7.589,0,0,0-1.617,3.449,60.119,60.119,0,0,0-1.451,8.181l-17.421,22.093L761.03,674.1,690.6,679.621l-42.512-78.5L552.57,537.35l26.078-1.64c26.084-1.647,100.127-20.25,100.127-20.25l83.759,21.006c13.547,3.373,25.514,12.32,33.594,25.117a138.491,138.491,0,0,1,14.865,33.75c1.261,1.714,1.748,4.523,1.819,7.6a67.547,67.547,0,0,1-1.469,13.453c-.208,1.019-.351,1.627-.351,1.627S811.04,618.243,811.135,618.675Z" transform="translate(-243.632 -197.15)"/>
        <path id="Path_214" data-name="Path 214" class="cls-8" d="M557.145,689.492s-5.119-62.188,33.3-79.063c0,0,54.036-25.893,85.792,44.469l16.131,40.129a18.408,18.408,0,0,0,17.16,9.592s59.155-2.025,90.376-24.712l9.733-12.825S804.77,685.1,799.9,689.175c0,0-19.2,25.583-89.122,30.24,0,0-28.593,3.483-37.215-27.331,0,0-11.7-69.775-71.112-69.195,0,0-34.908.776-35.764,69Z" transform="translate(-245.395 -226.502)"/>
        <path id="Path_215" data-name="Path 215" class="cls-2" d="M557.145,691.213s-5.119-62.181,33.3-79.063c0,0,54.036-25.886,85.792,44.469l16.131,40.122a18.408,18.408,0,0,0,17.16,9.592s59.155-2.025,90.376-24.712l9.763-12.791s-4.864,18.023-9.733,22.093c0,0-19.2,25.589-89.122,30.24,0,0-28.593,3.49-37.215-27.331,0,0-11.7-69.775-71.112-69.195,0,0-34.908.783-35.764,69.006Z" transform="translate(-245.395 -227.062)"/>
        <path id="Path_216" data-name="Path 216" class="cls-3" d="M557.145,691.213s-5.119-62.181,33.3-79.063c0,0,54.036-25.886,85.792,44.469l16.131,40.122a18.408,18.408,0,0,0,17.16,9.592s59.155-2.025,90.376-24.712l9.763-12.791s-4.864,18.023-9.733,22.093c0,0-19.2,25.589-89.122,30.24,0,0-28.593,3.49-37.215-27.331,0,0-11.7-69.775-71.112-69.195,0,0-34.908.783-35.764,69.006Z" transform="translate(-245.395 -227.062)"/>
        <path id="Path_217" data-name="Path 217" class="cls-3" d="M534.466,669.812,532.153,583.3a100.955,100.955,0,0,0-.595-17.55c-.071-.365-1.909-9.288-4.364-14.357a9.482,9.482,0,0,0-2.973-3.422l-1.362-.419,1.522-.128c1.052.229,2.051,1.471,2.973,3.206,1.677,2.612,3.651,7.2,4.691,15.026a100.918,100.918,0,0,1,.595,17.611l2.313,86.5Z" transform="translate(-231.587 -207.537)"/>
        <path id="Path_218" data-name="Path 218" class="cls-3" d="M611.145,608.854l-.5.095A38.753,38.753,0,0,0,606.073,596c-7.355-11.954-9.757-20.061-10.031-25.475a15.719,15.719,0,0,1,.595-5.548c1.147-3.652,4.221-6.352,8.4-7.688h0l.892.169c-4.013,1.283-7.73,4.253-8.83,7.715a15.355,15.355,0,0,0-.595,5.474c.3,5.3,2.705,13.25,9.941,25.029A38.8,38.8,0,0,1,611.145,608.854Z" transform="translate(-261.24 -210.745)"/>
        <path id="Path_219" data-name="Path 219" class="cls-3" d="M827.524,571c-32.631-22.107-101.709-42.667-102.4-42.87l.131-.567c.7.209,69.845,20.79,102.535,42.937Z" transform="translate(-313.587 -201.083)"/>
        <path id="Path_220" data-name="Path 220" class="cls-3" d="M892.274,598.778c-12.32-24.6-45.491-44.888-71.153-57.578a426.989,426.989,0,0,0-53.31-21.87l.137-.56a427.031,427.031,0,0,1,53.376,21.9c25.733,12.724,59.006,33.075,71.4,57.821Z" transform="translate(-330.894 -198.226)"/>
        <path id="Path_434" data-name="Path 434" class="cls-8" d="M6.764-.272c3.417-.212,5.458,11.8,4.558,26.834s-4.4,27.389-7.816,27.6-5.458-11.8-4.558-26.834S3.347-.061,6.764-.272Z" transform="matrix(0.799, -0.602, 0.602, 0.799, 526.764, 352.375)"/>
        <path id="Path_435" data-name="Path 435" class="cls-9" d="M6.764-.272c3.417-.212,5.458,11.8,4.558,26.834s-4.4,27.389-7.816,27.6-5.458-11.8-4.558-26.834S3.347-.061,6.764-.272Z" transform="matrix(0.799, -0.602, 0.602, 0.799, 526.767, 351.212)"/>
        <path id="Path_436" data-name="Path 436" class="cls-8" d="M4.5-.181C6.718-.319,7.914,9.633,7.171,22.046S4.028,44.634,1.81,44.772-1.6,34.958-.862,22.544,2.282-.044,4.5-.181Z" transform="matrix(0.799, -0.602, 0.602, 0.799, 531.826, 353.794)"/>
        <path id="Path_437" data-name="Path 437" class="cls-10" d="M4.5-.181C6.718-.319,7.914,9.633,7.171,22.046S4.028,44.634,1.81,44.772-1.6,34.958-.862,22.544,2.282-.044,4.5-.181Z" transform="matrix(0.799, -0.602, 0.602, 0.799, 531.828, 353.216)"/>
        <path id="Path_221" data-name="Path 221" class="cls-8" d="M848.806,643.62s1.665-14.249,11.529-17.449c0,0,33.546-11.016,40.848-11.178,0,0,7.551-2.626,12.546,3.767l5.119,7.85s3.568,6.4-4.352,7.56c0,0-40.544,16.875-58.126,18.63a22.076,22.076,0,0,0-2.973.513C850.827,653.92,845.435,654.1,848.806,643.62Z" transform="translate(-363.295 -229.324)"/>
        <path id="Path_222" data-name="Path 222" class="cls-10" d="M849.674,642.759s1.665-14.249,11.523-17.449c0,0,33.546-11.016,40.848-11.178,0,0,7.551-2.633,12.546,3.767l5.125,7.85s3.568,6.392-4.358,7.56c0,0-40.538,16.875-58.12,18.63a21.982,21.982,0,0,0-2.973.513C851.689,653.059,846.3,653.235,849.674,642.759Z" transform="translate(-363.646 -229.044)"/>
        <path id="Path_223" data-name="Path 223" class="cls-8" d="M855.668,642.992s1.552-12.184,10.7-14.918c0,0,31.192-9.45,37.976-9.565,0,0,7.022-2.248,11.666,3.22l4.756,6.716s3.33,5.474-4.049,6.467c0,0-37.69,14.445-54.035,15.937a22.326,22.326,0,0,0-2.741.439C857.547,651.767,852.534,651.943,855.668,642.992Z" transform="translate(-366.108 -230.492)"/>
        <path id="Path_224" data-name="Path 224" class="cls-4" d="M856.536,642.111s1.546-12.15,10.7-14.918c0,0,31.192-9.45,37.976-9.565,0,0,7.022-2.255,11.666,3.22l4.757,6.75s3.33,5.467-4.049,6.467c0,0-37.7,14.445-54.042,15.937a22.125,22.125,0,0,0-2.729.439C858.409,650.927,853.4,651.075,856.536,642.111Z" transform="translate(-366.459 -230.205)"/>
        <path id="Path_225" data-name="Path 225" class="cls-10" d="M861.605,635.46l-.065-.581c.458-.061,46.015-6.487,55.819-15.08l.315.459C907.757,628.933,863.484,635.183,861.605,635.46Z" transform="translate(-368.895 -231.06)"/>
        <path id="Path_226" data-name="Path 226" class="cls-10" d="M857.559,643.869l-.089-.574c.5-.1,50.617-10.638,61.426-18.225l.273.493C908.277,633.211,858.064,643.761,857.559,643.869Z" transform="translate(-367.244 -232.773)"/>
        <path id="Path_227" data-name="Path 227" class="cls-10" d="M855.565,651.317l-.1-.567c.594-.128,58.269-12.488,65.4-19.73l.339.432C914,638.8,857.943,650.811,855.565,651.317Z" transform="translate(-366.434 -234.707)"/>
        <path id="Path_228" data-name="Path 228" class="cls-8" d="M914.9,658.928s-21.738,10.294-44.593,14.911q-3.033.621-6,1.539c-2.319.716-5.613,1.525-7.4,1-2.943-.878-4.572,3.193-1.391,6.392l.2.2a10.538,10.538,0,0,0,8.461,3.172l4.893-.466s39.7-9.882,50.771-17.591c0,0,5.054-3.935,5.44-8.363s.844-7.918-3.163-5.3S914.9,658.928,914.9,658.928Z" transform="translate(-365.75 -242.02)"/>
        <path id="Path_229" data-name="Path 229" class="cls-10" d="M915.718,658.121c-.809.378-22.148,10.368-44.594,14.9a60.541,60.541,0,0,0-6,1.539c-2.313.715-5.613,1.525-7.4,1-2.973-.878-4.572,3.193-1.391,6.392l.1.094a10.834,10.834,0,0,0,8.723,3.287l4.709-.445h.077c1.362-.337,39.837-10,50.718-17.55h.042c.339-.277,5.048-4.084,5.417-8.35.386-4.428.85-7.918-3.163-5.3-3.811,2.484-6.9,4.32-7.182,4.489Z" transform="translate(-366.076 -241.78)"/>
        <path id="Path_230" data-name="Path 230" class="cls-8" d="M917.584,663.43A228.94,228.94,0,0,1,880.6,676.64c-1.9.472-3.787,1.026-5.66,1.64s-4.548,1.35-6.035,1.134c-2.545-.385-3.758,2.5-.9,4.435l.089.061a9.942,9.942,0,0,0,7.188,1.647l4.412-.675s33.409-9.545,42.507-15.566c0,0,4.162-3.031,4.269-6.075s.369-5.4-2.931-3.375S917.584,663.43,917.584,663.43Z" transform="translate(-370.844 -243.836)"/>
        <path id="Path_231" data-name="Path 231" class="cls-4" d="M918.439,662.58a229.019,229.019,0,0,1-36.977,13.21c-1.9.473-3.794,1.026-5.666,1.64s-4.543,1.35-6.035,1.134c-2.545-.385-3.758,2.491-.9,4.435h0a10.2,10.2,0,0,0,7.373,1.694l4.293-.675h0c.69-.2,33.475-9.6,42.489-15.525h0c.143-.108,4.162-3.085,4.263-6.075s.368-5.434-2.931-3.375-5.8,3.483-5.946,3.564Z" transform="translate(-371.193 -243.566)"/>
        <path id="Path_438" data-name="Path 438" class="cls-8" d="M7.654-.03c4.22-.025,7.627,2.186,7.608,4.939s-3.455,5-7.675,5.03S-.04,7.752-.022,5,3.433-.005,7.654-.03Z" transform="translate(464.209 451.054) rotate(-87.138)"/>
        <path id="Path_439" data-name="Path 439" class="cls-10" d="M7.644-.03c4.215-.025,7.617,2.184,7.6,4.933s-3.45,5-7.665,5.023S-.04,7.743-.021,4.993,3.429-.005,7.644-.03Z" transform="translate(464.077 451.013) rotate(-87.15)"/>
        <path id="Path_232" data-name="Path 232" class="cls-8" d="M843.868,709.644s-26.072,4.509-32.987,4.948-7.956,4.792-7.956,4.792-1.665,11.05,7.938,7.85l34.057-4.361s4.614.149,4.614-6.98v-1.6a18.2,18.2,0,0,1,.238-2.666C849.956,710.515,849.451,708.706,843.868,709.644Z" transform="translate(-345.086 -260.174)"/>
        <path id="Path_233" data-name="Path 233" class="cls-10" d="M844.74,708.784s-26.072,4.509-32.987,4.941-7.938,4.8-7.938,4.8-1.665,11.05,7.938,7.85l34.063-4.361s4.608.149,4.608-6.979v-1.6a18.182,18.182,0,0,1,.238-2.666C850.852,709.655,850.323,707.846,844.74,708.784Z" transform="translate(-345.447 -259.895)"/>
        <path id="Path_234" data-name="Path 234" class="cls-10" d="M979.558,676.983a7.586,7.586,0,0,0-1.617,3.449h0l-8.443,6.79a.621.621,0,0,1-.714.057.8.8,0,0,1-.374-.692V679.46a6.124,6.124,0,0,1,2.527-5.076l8.788-6.014C980.177,670.28,981.247,675.545,979.558,676.983Z" transform="translate(-412.222 -246.845)"/>
        <path id="Path_235" data-name="Path 235" class="cls-4" d="M886.383,700.076l-.392,7.209a5.179,5.179,0,0,0,1.322,3.883,3.925,3.925,0,0,0,3.495,1.261A108.075,108.075,0,0,0,931.56,695.81l1.112-14.729a2.2,2.2,0,0,0-.737-1.881,1.646,1.646,0,0,0-1.8-.231c-7.135,3.611-26.263,12.866-38.4,14.634A6.7,6.7,0,0,0,886.383,700.076Z" transform="translate(-378.802 -250.234)"/>
        <path id="Path_236" data-name="Path 236" class="cls-2" d="M893.26,698.242V709.96s31.756-8.519,38.8-14.263V684.58a146.01,146.01,0,0,1-38.8,13.662Z" transform="translate(-381.754 -252.113)"/>
        <path id="Path_237" data-name="Path 237" class="cls-2" d="M984.912,658.962c-1.611-.128-2.9-3.267-2.9-7.108s1.344-7.115,2.973-7.115a1.82,1.82,0,0,1,1.362.763A65.476,65.476,0,0,1,984.912,658.962Z" transform="translate(-417.735 -239.166)"/>
        <path id="Path_238" data-name="Path 238" class="cls-10" d="M985.776,658.092c-1.611-.121-2.9-3.26-2.9-7.1s1.338-7.121,2.973-7.121a1.85,1.85,0,0,1,1.368.77A66.078,66.078,0,0,1,985.776,658.092Z" transform="translate(-418.088 -238.883)"/>
        <path id="Path_239" data-name="Path 239" class="cls-4" d="M680.9,707.132c0,63.889-23.783,65.273-54.8,65.273-24.782,0-34.926-29.221-34.926-65.273s7.962-65.192,32.738-65.192S680.9,671.087,680.9,707.132Z" transform="translate(-259.281 -238.256)"/>
        <path id="Path_240" data-name="Path 240" class="cls-3" d="M680.9,707.132c0,63.889-23.783,65.273-54.8,65.273-24.782,0-34.926-29.221-34.926-65.273s7.962-65.192,32.738-65.192S680.9,671.087,680.9,707.132Z" transform="translate(-259.281 -238.256)"/>
        <ellipse id="Ellipse_31" data-name="Ellipse 31" class="cls-4" cx="31.263" cy="65.273" rx="31.263" ry="65.273" transform="translate(331.889 403.603)"/>
        <path id="Path_241" data-name="Path 241" class="cls-10" d="M167.247,663.307c0,19.575-4.994,35.276-15.37,35.276S129.17,682.7,129.17,663.112s4.311-36.822,14.686-36.822S167.247,643.719,167.247,663.307Z" transform="translate(-71.977 -233.169)"/>
        <path id="Path_242" data-name="Path 242" class="cls-4" d="M172.265,665.437q0,2.227-.107,4.374a62.358,62.358,0,0,1-1.451,11.151c-1.683,7.209-4.757,12.218-9.24,13.169a7.728,7.728,0,0,1-1.6.162,11.576,11.576,0,0,1-6.635-2.443c-4.275-3.091-8.217-8.863-10.221-16.079a38.317,38.317,0,0,1-1.373-8.174c-.048-.756-.071-1.526-.071-2.3a81.375,81.375,0,0,1,1.4-15.869,31.728,31.728,0,0,1,3.02-9.018c1.831-3.274,4.263-5.224,7.379-5.224a11.285,11.285,0,0,1,6.5,2.491A27.471,27.471,0,0,1,167,646.058a39.356,39.356,0,0,1,5.268,19.379Z" transform="translate(-77.002 -236.062)"/>
        <path id="Path_243" data-name="Path 243" class="cls-10" d="M172.178,671.034a62.362,62.362,0,0,1-1.439,11.124c-.214-.277-6.089-7.985-10.5-3.038-3.24,3.625-.511,11.88,1.261,16.2a7.729,7.729,0,0,1-1.6.162,11.575,11.575,0,0,1-6.635-2.444v-.553s2.61-9.234-4.352-14.924c0,0-3.383-1.525-5.9-.608a38.318,38.318,0,0,1-1.373-8.174c.595-.533,4.667-4.5,3-11.961a59.933,59.933,0,0,0-1.677-6.2,31.7,31.7,0,0,1,3.05-9s1.338,8.242,6.457,8.735,7.355-11.151,7.42-11.475a27.472,27.472,0,0,1,7.135,8.377s-8.176,3.861-5.791,14.135C162.985,668.658,168.907,670.555,172.178,671.034Z" transform="translate(-77.033 -237.258)"/>
        <path id="Path_440" data-name="Path 440" class="cls-4" d="M3.893-.047c2.127-.04,3.8,3.3,3.726,7.47S5.77,15,3.643,15.038s-3.8-3.3-3.726-7.47S1.766-.007,3.893-.047Z" transform="translate(72.99 420.859) rotate(-8.049)"/>
        <path id="Path_244" data-name="Path 244" class="cls-10" d="M630.018,721.195c0,23.47-4.406,42.269-13.556,42.269s-20.031-19.028-20.031-42.525,3.805-44.118,12.956-44.118S630.018,697.725,630.018,721.195Z" transform="translate(-261.414 -249.591)"/>
        <path id="Path_245" data-name="Path 245" class="cls-4" d="M634.446,723.791q0,2.7-.1,5.245a100.59,100.59,0,0,1-1.284,13.338c-1.481,8.64-4.162,14.634-8.152,15.781a5.405,5.405,0,0,1-1.409.189c-1.915,0-3.924-1.039-5.851-2.93-3.793-3.706-7.254-10.658-9.044-19.271a61.71,61.71,0,0,1-1.189-9.794c-.042-.9-.065-1.822-.065-2.754a130.855,130.855,0,0,1,1.237-19.008,47.4,47.4,0,0,1,2.711-10.8c1.617-3.922,3.764-6.257,6.511-6.257,1.849,0,3.817,1.073,5.732,2.983a32.241,32.241,0,0,1,6.314,10.037,60.628,60.628,0,0,1,4.584,23.24Z" transform="translate(-265.842 -253.072)"/>
        <path id="Path_246" data-name="Path 246" class="cls-10" d="M634.4,730.449a100.66,100.66,0,0,1-1.284,13.338c-.184-.338-5.351-9.572-9.264-3.645-2.854,4.347-.452,14.236,1.112,19.427a5.409,5.409,0,0,1-1.409.189c-1.915,0-3.924-1.04-5.851-2.93v-.675s2.3-11.063-3.841-17.881c0,0-2.973-1.829-5.2-.729a61.694,61.694,0,0,1-1.189-9.794c.523-.641,4.115-5.4,2.646-14.33-.559-3.375-1.058-5.785-1.475-7.425a47.407,47.407,0,0,1,2.711-10.8s1.189,9.882,5.7,10.463,6.487-13.352,6.54-13.736a32.247,32.247,0,0,1,6.315,10.037s-7.212,4.63-5.108,16.936C626.277,727.648,631.5,729.889,634.4,730.449Z" transform="translate(-265.89 -254.499)"/>
        <path id="Path_441" data-name="Path 441" class="cls-4" d="M3.433-.024c1.88-.021,3.365,4,3.317,8.98s-1.611,9.034-3.491,9.055-3.365-4-3.317-8.98S1.553,0,3.433-.024Z" transform="translate(347.585 461.063) rotate(-4.68)"/>
        <path id="Path_247" data-name="Path 247" d="M552.57,547.89" transform="translate(-243.632 -207.69)"/>
        <path id="Path_248" data-name="Path 248" class="cls-3" d="M681.6,576.941l-.208.533c-.2-.108-17.909-8.775-83.568-21.425q-4.6-.884-9.513-1.8c-.3-.047-.595-.108-.91-.162-10.506-1.944-22.106-3.962-34.9-6.075l.071-.58c17.332,2.835,32.464,5.535,45.664,8.1C663.728,568.166,681.393,576.84,681.6,576.941Z" transform="translate(-243.604 -207.54)"/>
        <path id="Path_249" data-name="Path 249" class="cls-8" d="M209.86,416.9s5.946-11.475,26.292-12.494c0,0,148.7-22.052,242.589.864,0,0,8.015,4.05-.684,6.426S269.443,422.283,209.86,416.9Z" transform="translate(-104.691 -157.953)"/>
        <path id="Path_250" data-name="Path 250" class="cls-12" d="M209.86,415.175s5.946-11.475,26.292-12.5c0,0,148.7-22.046,242.589.871,0,0,8.015,4.05-.684,6.426S269.443,420.562,209.86,415.175Z" transform="translate(-104.691 -157.393)"/>
        <path id="Path_251" data-name="Path 251" class="cls-8" d="M185.811,476.588c9.234-24.678,20.317-36.349,23.825-39.609a3.7,3.7,0,0,1,2.438-1.013l48.649-1.026a3.824,3.824,0,0,1,3.347,1.958,4.05,4.05,0,0,0-3.859-3.119l-48.649,1.026a3.655,3.655,0,0,0-2.438,1.012c-3.508,3.254-14.591,14.924-23.825,39.6a6.646,6.646,0,0,0,.422,5.589A6.688,6.688,0,0,1,185.811,476.588Z" transform="translate(-94.561 -170.604)"/>
        <path id="Path_252" data-name="Path 252" class="cls-8" d="M332.791,478.846l6.63-34.2c1.189-6.19,5.7-10.577,10.893-10.631l62.657-.675a9.4,9.4,0,0,1,6.54,2.66,9.706,9.706,0,0,0-7.539-3.746l-62.657.675c-5.2.061-9.7,4.448-10.893,10.638l-6.659,34.2a16.815,16.815,0,0,0,4.412,15.255A17.143,17.143,0,0,1,332.791,478.846Z" transform="translate(-153.971 -170.107)"/>
        <path id="Path_253" data-name="Path 253" class="cls-8" d="M543.981,489.545,521.8,437.354a5.483,5.483,0,0,1,.211-4.694,4.244,4.244,0,0,1,3.594-2.333c16.892-.351,61.289-1.789,84.169-7.493-1.439-1.276-2.265-1.985-2.265-1.985-22.594,5.906-67.978,7.378-85.108,7.729a4.245,4.245,0,0,0-3.594,2.333,5.483,5.483,0,0,0-.211,4.694l22.184,52.171a16.7,16.7,0,0,0,9.073,9.18A17.356,17.356,0,0,1,543.981,489.545Z" transform="translate(-229.686 -166.402)"/>
        <rect id="Rectangle_182" data-name="Rectangle 182" class="cls-2" width="9.561" height="3.341" transform="translate(311.756 464.151)"/>
        <rect id="Rectangle_183" data-name="Rectangle 183" class="cls-3" width="9.561" height="3.341" transform="translate(311.756 464.151)"/>
        <path id="Path_254" data-name="Path 254" class="cls-2" d="M237.145,682.53l-11.755,2.3a7.646,7.646,0,0,0,.339,1.35c.232.675,13.081-.52,13.081-.52l-1.237-.29Z" transform="translate(-110.987 -251.447)"/>
        <path id="Path_255" data-name="Path 255" class="cls-3" d="M237.145,682.53l-11.755,2.3a7.646,7.646,0,0,0,.339,1.35c.232.675,13.081-.52,13.081-.52l-1.237-.29Z" transform="translate(-110.987 -251.447)"/>
        <path id="Path_256" data-name="Path 256" class="cls-8" d="M153.786,698.432c-10.369,0-22.707-15.883-22.707-35.471,0-13.426,2.028-25.751,6.641-32.171-5.946,5.447-8.55,19.184-8.55,34.338,0,19.575,12.338,35.471,22.707,35.471,3.508,0,6.392-1.8,8.687-4.927A9.742,9.742,0,0,1,153.786,698.432Z" transform="translate(-71.977 -234.632)"/>
        <path id="Path_257" data-name="Path 257" class="cls-8" d="M618.511,762.213c-9.287,0-20.335-19.069-20.335-42.593,0-16.126,1.784-30.922,5.946-38.631-5.351,6.541-7.652,23.038-7.652,41.236,0,23.524,11.047,42.593,20.335,42.593,3.139,0,5.726-2.16,7.777-5.913A7.761,7.761,0,0,1,618.511,762.213Z" transform="translate(-261.43 -250.947)"/>
        <path id="Path_442" data-name="Path 442" class="cls-8" d="M17.039-.7c9.024-.572,15.435,13.246,14.319,30.863S22.022,62.52,13,63.092-2.437,49.846-1.321,32.229,8.015-.133,17.039-.7Z" transform="translate(413.72 384.465) rotate(-45)"/>
        <path id="Path_443" data-name="Path 443" class="cls-9" d="M17.039-.7c9.024-.572,15.435,13.246,14.319,30.863S22.022,62.52,13,63.092-2.437,49.846-1.321,32.229,8.015-.133,17.039-.7Z" transform="translate(414.231 383.887) rotate(-45)"/>
        <path id="Path_444" data-name="Path 444" class="cls-8" d="M12.576-.52C19.191-.939,23.787,10.84,22.84,25.789S15.762,53.2,9.146,53.615-2.064,42.255-1.118,27.306,5.96-.1,12.576-.52Z" transform="translate(421.923 383.729) rotate(-45)"/>
        <path id="Path_445" data-name="Path 445" class="cls-10" d="M12.576-.52C19.191-.939,23.787,10.84,22.84,25.789S15.762,53.2,9.146,53.615-2.064,42.255-1.118,27.306,5.96-.1,12.576-.52Z" transform="translate(421.924 383.143) rotate(-45)"/>
        <path id="Path_258" data-name="Path 258" class="cls-2" d="M1070.183,795.112s-25.139-1.721-22.178,18.279c0,0-.594,3.53,2.236,5.137,0,0,.041-1.478,2.58-.979a10.139,10.139,0,0,0,2.729.148,5.319,5.319,0,0,0,3.336-1.566h0s7.069-3.314,9.817-16.423c0,0,2.033-2.862,1.95-3.6l-4.24,2.025s1.451,3.476.309,6.365c0,0-.137-6.237-.951-6.075-.167,0-2.206,1.2-2.206,1.2s2.5,6.075.594,10.449c0,0,.714-7.425-1.391-10.01l-2.973,1.978s2.914,6.25.939,11.354c0,0,.506-7.823-1.569-10.874l-2.705,2.4s2.741,6.163,1.07,10.4c0,0-.22-9.106-1.659-9.794,0,0-2.378,2.369-2.723,3.341,0,0,1.873,4.469.708,6.831,0,0-.714-6.075-1.3-6.075,0,0-2.378,4.05-2.6,6.75a16.108,16.108,0,0,1,2.033-7.162,6.838,6.838,0,0,0-3.609,2.126s.363-2.842,4.162-3.092c0,0,1.95-3.051,2.467-3.233,0,0-3.805-.364-6.112.8,0,0,2.034-2.7,6.814-1.465l2.67-2.471s-5.012-.783-7.135.081c0,0,2.444-2.376,7.854-.675l2.908-1.971s-4.269-1.046-6.814-.675c0,0,2.681-1.647,7.67.135l2.075-1.06s-3.127-.675-4.043-.8-.969-.4-.969-.4a9.665,9.665,0,0,1,5.88.742S1070.254,795.429,1070.183,795.112Z" transform="translate(-444.393 -288.024)"/>
        <ellipse id="Ellipse_38" data-name="Ellipse 38" class="cls-1" cx="17.79" cy="3.416" rx="17.79" ry="3.416" transform="translate(590.686 528.83)"/>
        <path id="Path_259" data-name="Path 259" class="cls-2" d="M1015.474,731.548s-17.112-1.168-15.1,12.44a3.479,3.479,0,0,0,1.522,3.5s.03-1.012,1.784-.675a6.9,6.9,0,0,0,1.861.1,3.648,3.648,0,0,0,2.271-1.066h0s4.81-2.255,6.683-11.178c0,0,1.379-1.951,1.326-2.45l-2.884,1.4a6.642,6.642,0,0,1,.208,4.333s-.1-4.246-.648-4.145c-.113,0-1.5.817-1.5.817s1.694,4.124.416,7.114c0,0,.482-5.076-.951-6.811l-2.028,1.35s1.98,4.259.636,7.729c0,0,.345-5.326-1.064-7.425l-1.843,1.627s1.861,4.2.725,7.074c0,0-.149-6.2-1.124-6.669a12.3,12.3,0,0,0-1.861,2.281s1.278,3.044.488,4.651c0,0-.488-4.131-.886-4.151a14.469,14.469,0,0,0-1.784,4.61,10.924,10.924,0,0,1,1.385-4.874,4.7,4.7,0,0,0-2.461,1.445s.25-1.93,2.854-2.1a12.7,12.7,0,0,1,1.683-2.207,9.4,9.4,0,0,0-4.162.547s1.385-1.823,4.638-.992l1.819-1.688s-3.413-.533-4.858.054c0,0,1.665-1.613,5.351-.439l1.98-1.35a15.918,15.918,0,0,0-4.638-.452s1.825-1.12,5.22.095l1.415-.722s-2.129-.479-2.753-.554-.66-.27-.66-.27a6.579,6.579,0,0,1,4,.506S1015.545,731.764,1015.474,731.548Z" transform="translate(-425.115 -267.37)"/>
        <ellipse id="Ellipse_40" data-name="Ellipse 40" class="cls-1" cx="12.112" cy="2.322" rx="12.112" ry="2.322" transform="translate(566.463 478.981)"/>
        <ellipse id="Ellipse_41" data-name="Ellipse 41" class="cls-1" cx="17.79" cy="3.416" rx="17.79" ry="3.416" transform="translate(0 498.982)"/>
        <path id="Path_260" data-name="Path 260" class="cls-13" d="M42.81,761.677s10.144-.351,13.206-2.828,15.608-5.4,16.369-1.458,15.251,19.724,3.793,19.825-26.619-2.025-29.675-4.138S42.81,761.677,42.81,761.677Z" transform="translate(-36.965 -275.149)"/>
        <path id="Path_261" data-name="Path 261" class="cls-3" d="M76.376,778.825c-11.458.1-26.619-2.025-29.67-4.138-2.325-1.607-3.252-7.378-3.567-10.037H42.8s.642,9.295,3.692,11.4,18.218,4.246,29.675,4.138c3.306,0,4.447-1.35,4.388-3.375C80.1,778.056,78.838,778.8,76.376,778.825Z" transform="translate(-36.961 -278.136)"/>
        <g id="Group_6" data-name="Group 6" class="cls-14" transform="translate(358.73 311.249)">
          <path id="Path_263" data-name="Path 263" class="cls-15" d="M640.806,537.083c-.244.506-1.992,1.694-4.12,3-.2-1.762-.339-3.092-.369-3.5-.125-1.505,2.705-8.249,2.705-8.249s5.417-8.248,5.292-9.49,2.093-4.806,2.093-4.806L651.319,505a4.5,4.5,0,0,0,.505,4.232c1.481,2.2.244,6.6.244,6.6l.3,5.549v.554c-.172.2-.963,1.053-2.711,2.842-1.611,1.647-1.326,2.153-1.142,2.288-.369.742.083.871.083.871a2.3,2.3,0,0,0,.428-.04l-.392.412C645.64,531.494,641.246,536.185,640.806,537.083Z" transform="translate(-636.313 -505)"/>
        </g>
        <path id="Path_279" data-name="Path 279" class="cls-16" d="M531.822,642s-11.707,1.627-14.032,4.367c0,0,10.28.81,10.7,2.335,0,0-5.874-4.516-7.51-3.375Z" transform="translate(-229.531 -238.275)"/>
        <path id="Path_294" data-name="Path 294" class="cls-8" d="M661.3,526.985s6.54-2.639,6.731-1.829-6.731,5.278-6.731,5.278Z" transform="translate(-287.713 -200.251)"/>
        <path id="Path_304" data-name="Path 304" class="cls-8" d="M467.595,810.065,467,809.91Z" transform="translate(-208.94 -292.845)"/>
        <path id="Path_306" data-name="Path 306" class="cls-8" d="M468.421,810.234l-.321-.074Z" transform="translate(-209.386 -292.926)"/>
        <path id="Path_307" data-name="Path 307" class="cls-8" d="M454.33,804.55Z" transform="translate(-203.804 -291.103)"/>
        <path id="Path_308" data-name="Path 308" class="cls-8" d="M454.35,804.56Z" transform="translate(-203.812 -291.106)"/>
        <path id="Path_309" data-name="Path 309" class="cls-8" d="M468.051,810.16h0Z" transform="translate(-209.337 -292.926)"/>
        <path id="Path_310" data-name="Path 310" class="cls-17" d="M605.51,764.289c.065.79.1,1.566.119,2.241a3.932,3.932,0,0,0,.809,2.342l.036.041a36.922,36.922,0,0,0,.262-4.813C606.61,764.309,606.075,764.329,605.51,764.289Z" transform="translate(-265.095 -277.957)"/>
        <ellipse id="Ellipse_39" data-name="Ellipse 39" class="cls-1" cx="10.031" cy="1.924" rx="10.031" ry="1.924" transform="translate(642.92 453.831)"/>
      </g>
      <g id="Group_14" data-name="Group 14" transform="translate(-227 -279.5)">
        <ellipse id="Ellipse_76" data-name="Ellipse 76" class="cls-18" cx="14.382" cy="15.171" rx="14.382" ry="15.171" transform="translate(890.672 751.662)"/>
        <path id="Path_415" data-name="Path 415" class="cls-18" d="M569.149,535.727c1.484,10.987-.326,22.19-3.146,32.879a25.259,25.259,0,0,1-2.08,5.784c-.986,1.787-2.357,3.323-3.516,5-2.414,3.505-3.83,7.638-5.153,11.729a345.09,345.09,0,0,0-9.18,34.509,2.488,2.488,0,0,0,0,1.472c.35.849,1.412.959,2.285.955l11.288-.064c.4-.815-.342-1.7-.8-2.478-1.609-2.64-.064-6.068,1.356-8.831a98.069,98.069,0,0,0,7.957-21.218,59.906,59.906,0,0,1,2.655-9.221c1.517-3.556,3.894-6.616,5.825-9.943a85.413,85.413,0,0,0,5.507-12.277c2.269-5.848,4.558-11.767,5.451-18.014.841-5.865.426-11.84-.121-17.742a1.158,1.158,0,0,0-.306-.969,1.027,1.027,0,0,0-.925-.3l-15.146-.823c-3.122-.17-3.862-.891-3.387,2.342C568.039,530.932,568.82,533.283,569.149,535.727Z" transform="translate(327.561 349.118)"/>
        <path id="Path_416" data-name="Path 416" class="cls-8" d="M569.149,535.727c1.484,10.987-.326,22.19-3.146,32.879a25.259,25.259,0,0,1-2.08,5.784c-.986,1.787-2.357,3.323-3.516,5-2.414,3.505-3.83,7.638-5.153,11.729a345.09,345.09,0,0,0-9.18,34.509,2.488,2.488,0,0,0,0,1.472c.35.849,1.412.959,2.285.955l11.288-.064c.4-.815-.342-1.7-.8-2.478-1.609-2.64-.064-6.068,1.356-8.831a98.069,98.069,0,0,0,7.957-21.218,59.906,59.906,0,0,1,2.655-9.221c1.517-3.556,3.894-6.616,5.825-9.943a85.413,85.413,0,0,0,5.507-12.277c2.269-5.848,4.558-11.767,5.451-18.014.841-5.865.426-11.84-.121-17.742a1.158,1.158,0,0,0-.306-.969,1.027,1.027,0,0,0-.925-.3l-15.146-.823c-3.122-.17-3.862-.891-3.387,2.342C568.039,530.932,568.82,533.283,569.149,535.727Z" transform="translate(327.561 349.118)"/>
        <path id="Path_417" data-name="Path 417" class="cls-18" d="M602.865,484.385c-3.077,4.668-6.3,10.04-5.282,15.629.776,4.244,3.842,7.532,6.734,10.609,11.562,12.247,22.93,25.852,26.865,42.635,1.014,4.337,1.5,8.788,2.378,13.155,1.585,7.935,4.425,15.523,7.241,23.064l7.547,20.093a11.419,11.419,0,0,0,10.9-7.638,4.757,4.757,0,0,1-2.86-1.939c-3.218-4.7-3.878-10.74-4.7-16.469-.913-6.331-2.132-12.612-3.355-18.888l-5.407-27.77c-.624-3.2-1.247-6.412-2.06-9.569-3.146-12.23-9.108-23.764-10.029-36.41-.137-1.859-.221-3.9-1.416-5.279-1.255-1.456-3.315-1.7-5.177-1.812C616.708,483.286,610.207,482.509,602.865,484.385Z" transform="translate(296.822 373.752)"/>
        <path id="Path_418" data-name="Path 418" class="cls-19" d="M546.83,757.114a11.422,11.422,0,0,0-2.5-.339,5.135,5.135,0,0,0-4.087,2.355,11,11,0,0,0-1.1,2.546l-1.09,3.3a3.855,3.855,0,0,0-.157,2.97,3.012,3.012,0,0,0,1.464,1.192c2.639,1.239,5.632,1.307,8.488,1.6,2.792.289,5.56.806,8.315,1.349.949.191,1.895.382,2.856.484a32.268,32.268,0,0,0,6.461-.2l2.217-.225a7.611,7.611,0,0,0,2.18-.424,2.8,2.8,0,0,0,1.609-1.523,2.757,2.757,0,0,0-2.064-3.42c-.583-.119-1.207-.064-1.778-.144a8.079,8.079,0,0,1-1.947-.615,38.016,38.016,0,0,1-8.195-4.214,2.624,2.624,0,0,1-1.34-2.122,4.488,4.488,0,0,1,.358-1.1,4.221,4.221,0,0,0,.032-2.839c-.137-.39-.4-.8-.776-.849-1.062-.136-.933,1.5-1.09,2.122-.213.849-.6.925-1.356.849A63.455,63.455,0,0,1,546.83,757.114Z" transform="translate(332.53 217.351)"/>
        <path id="Path_419" data-name="Path 419" class="cls-19" d="M718.276,766.486a7.75,7.75,0,0,0,1.537,4.562,3.4,3.4,0,0,0,1.094.929,4.187,4.187,0,0,0,2.011.335,15.386,15.386,0,0,0,5.588-1.192,15.466,15.466,0,0,1,1.931-.768,20.606,20.606,0,0,1,2.51-.382c3.327-.505,6.248-2.576,9.462-3.624a19.175,19.175,0,0,0,2.816-.976,13.029,13.029,0,0,0,3.311-2.729,8.286,8.286,0,0,0,1.521-1.922,8.833,8.833,0,0,0,.652-3.857,1.151,1.151,0,0,0-.1-.6.854.854,0,0,0-.362-.3,4.993,4.993,0,0,0-3.218-.055,54.259,54.259,0,0,1-11.884.463,1.714,1.714,0,0,1-1.826-1.1l-1.509-2.546c-.43-.73-1.114-1.566-1.895-1.315-.624.2-.877,1.006-.853,1.7a9.56,9.56,0,0,1,.1,2.054,2.789,2.789,0,0,1-1.287,1.765,7.97,7.97,0,0,1-2.011.815c-2.221.662-4.8,1.413-6.521,3.136C718.083,762.1,718.2,764.835,718.276,766.486Z" transform="translate(224.593 219.382)"/>
        <path id="Path_420" data-name="Path 420" class="cls-20" d="M693.354,365.231a9.656,9.656,0,0,0,2.2-2.521,10.707,10.707,0,0,0,.937-3.484l.632-4.21c.35-2.321.76-4.778,2.229-6.548s4.393-2.4,5.885-.654a5.614,5.614,0,0,1,1.07,2.818,21.284,21.284,0,0,1-4.755,16.974c-1.806,2.088-4.023,3.747-5.934,5.72-1.666,1.7-3.11,3.645-4.646,5.491a65.3,65.3,0,0,1-12.66,11.67c.056-3.157.439-6.544,0-9.68-.326-2.266-1.207-3.488.873-4.969C684.008,372.377,688.88,369.245,693.354,365.231Z" transform="translate(248.735 452.278)"/>
        <path id="Path_421" data-name="Path 421" class="cls-20" d="M611.376,308.078a7.911,7.911,0,0,1-2.816,5.869q7.519,2.775,14.832,6.119a5.6,5.6,0,0,1-1.271-3.794,19.935,19.935,0,0,1,2.776-10.227,2.57,2.57,0,0,0,.455-1.349c-.056-1-1.183-1.464-2.108-1.7a49.325,49.325,0,0,0-9.623-1.473c-1.388-.047-3.033-.509-2.719,1.354A21.575,21.575,0,0,1,611.376,308.078Z" transform="translate(290.146 478.377)"/>
        <ellipse id="Ellipse_77" data-name="Ellipse 77" class="cls-20" cx="11.759" cy="12.404" rx="11.759" ry="12.404" transform="translate(899.458 762.856)"/>
        <path id="Path_422" data-name="Path 422" class="cls-21" d="M625.939,342.857a15.2,15.2,0,0,0-1.492-2.639,54.429,54.429,0,0,0-7.056-9.128,44.137,44.137,0,0,0-6.7-5.19,14.876,14.876,0,0,0-4.192-2.122,15.6,15.6,0,0,0-2.691-.386l-3.053-.263a2.37,2.37,0,0,0-.8.025,1.855,1.855,0,0,0-1.03,2.185,5.423,5.423,0,0,0,1.36,2.258c.137,6.573-2.635,13.057-3.009,19.622-.656,11.479,5.986,22.156,6.517,33.643a3.817,3.817,0,0,1-.153,1.54c-.089.238-.221.454-.322.687a7.049,7.049,0,0,0-.358,2.334,12.142,12.142,0,0,1-3.311,7.477,4.959,4.959,0,0,0,1.867,1.5,32.215,32.215,0,0,0,4.18,1.052c3.556,1.095,7.2,2.2,10.9,1.965a10.587,10.587,0,0,0,.841-3.34c.523-.344,1.126.39,1.207,1.035s-.036,1.4.4,1.863a1.589,1.589,0,0,0,1.529.323,64.632,64.632,0,0,0,6.638-1.642,11.762,11.762,0,0,1,6.73-.025,1.987,1.987,0,0,0-.1-2.079,9.421,9.421,0,0,1-1.058-1.905,4.5,4.5,0,0,1-.129-1.252c0-3.628.708-7.295.036-10.855-.2-1.044-.511-2.062-.712-3.111a28.275,28.275,0,0,1-.29-6.2c.052-2.075-.185-4.32-.225-6.425a21.6,21.6,0,0,0-.161-2.6c-.137-.9-.4-1.786-.475-2.7-.217-2.317.668-4.617.535-6.942C631.133,348.03,627.243,346.112,625.939,342.857Z" transform="translate(296.92 465.906)"/>
        <path id="Path_423" data-name="Path 423" class="cls-20" d="M579.048,365.583c-2.848,7.969-4.24,16.423-5.632,24.816L570.2,410.115a100.431,100.431,0,0,0-1.794,16.83,18.986,18.986,0,0,1-.3,4.736c-.515,2.011-1.794,3.688-2.764,5.517a19.022,19.022,0,0,0-1.85,12.277c.33,1.761,1.231,3.76,2.925,3.963,1.392.161,2.595-1.006,3.407-2.211,1.867-2.763,2.792-6.1,3.621-9.382a222.763,222.763,0,0,0,5.58-32.714,33.488,33.488,0,0,1,.559-4.159,30.622,30.622,0,0,1,1.36-4.142q1.846-4.829,3.7-9.658c2.844-7.439,5.7-14.912,9.611-21.795-3.862-1.171-7.881-2.546-11.743-3.7A10.063,10.063,0,0,0,579.048,365.583Z" transform="translate(317.273 441.516)"/>
        <path id="Path_424" data-name="Path 424" class="cls-21" d="M604.845,367.221c-2.7-.615-5.5-.424-8.259-.5a1.712,1.712,0,0,1-1.11-.306c-.559-.505-.322-1.451-.04-2.168l1.336-3.395a5,5,0,0,1,1.07-1.876,4.387,4.387,0,0,1,2.538-.908,21.83,21.83,0,0,1,8.794.361,10.622,10.622,0,0,1,6.791,5.551,3.958,3.958,0,0,1,.072,3.713c-1.046,1.583-3.391,3.352-5.141,2.487C608.8,369.135,607.194,367.747,604.845,367.221Z" transform="translate(298.17 445.934)"/>
        <path id="Path_425" data-name="Path 425" class="cls-18" d="M600.036,233.532a11.427,11.427,0,0,0-6.557,1.994,13.847,13.847,0,0,0-14.12-3.488,8.326,8.326,0,0,0-8.574-7.167,8.455,8.455,0,0,0-7.729,8.166,8.581,8.581,0,0,0,6.808,9.032c-2.232,8.041,2.139,16.468,9.761,18.822s15.612-2.256,17.843-10.3a12.23,12.23,0,0,0,2.579.276c5.672,0,10.274-3.883,10.274-8.67S605.7,233.532,600.036,233.532Z" transform="translate(317.352 522.462)"/>
        <path id="Path_426" data-name="Path 426" class="cls-8" d="M653.461,271.323a11.882,11.882,0,0,1-2.579-.276A15.5,15.5,0,0,1,649,275.414a12.268,12.268,0,0,0,2.414.246c5.3,0,9.655-3.395,10.214-7.74A11.031,11.031,0,0,1,653.461,271.323Z" transform="translate(265.975 497.673)"/>
        <path id="Path_427" data-name="Path 427" class="cls-8" d="M585.652,261.15a14.172,14.172,0,0,1-11.564-6.167,15.874,15.874,0,0,1-2.186-13.473,8.553,8.553,0,0,1-6.795-8.538,8.974,8.974,0,0,1,.133-1.553,9.025,9.025,0,0,0-1.757,8.658,8.364,8.364,0,0,0,6.367,5.77c-2.353,8,1.889,16.5,9.476,18.984s15.644-1.993,18-10A14.136,14.136,0,0,1,585.652,261.15Z" transform="translate(317.347 518.684)"/>
        <path id="Path_446" data-name="Path 446" class="cls-22" d="M.12-.012A.147.147,0,0,1,.261.131l.051,2.03A.13.13,0,0,1,.178,2.3a.147.147,0,0,1-.141-.143L-.014.124A.13.13,0,0,1,.12-.012Z" transform="matrix(0.814, 0.581, -0.581, 0.814, 955.324, 805.154)"/>
        <path id="Path_447" data-name="Path 447" class="cls-22" d="M.068-.007a.084.084,0,0,1,.08.081l.015.6A.074.074,0,0,1,.087.752.084.084,0,0,1,.007.67L-.008.07A.074.074,0,0,1,.068-.007Z" transform="matrix(0.814, 0.581, -0.581, 0.814, 949.024, 798.138)"/>
        <path id="Path_448" data-name="Path 448" class="cls-22" d="M.075-.008a.092.092,0,0,1,.088.09L.192,1.228a.082.082,0,0,1-.084.085.092.092,0,0,1-.088-.09L-.009.078A.082.082,0,0,1,.075-.008Z" transform="matrix(0.814, 0.581, -0.581, 0.814, 948.235, 799.294)"/>
        <path id="Path_449" data-name="Path 449" class="cls-22" d="M.072-.007A.088.088,0,0,1,.156.078L.185,1.245a.078.078,0,0,1-.08.081.088.088,0,0,1-.084-.085L-.008.074A.078.078,0,0,1,.072-.007Z" transform="matrix(0.814, 0.581, -0.581, 0.814, 947.241, 800.776)"/>
        <path id="Path_450" data-name="Path 450" class="cls-22" d="M.9-.094,8.047.088A1.108,1.108,0,0,1,9.106,1.165L9.53,18.112a.98.98,0,0,1-1.006,1.024l-7.146-.182A1.107,1.107,0,0,1,.32,17.878L-.1.93A.98.98,0,0,1,.9-.094Z" transform="matrix(0.814, 0.581, -0.581, 0.814, 950.91, 797.064)"/>
        <path id="Path_451" data-name="Path 451" class="cls-8" d="M.9-.094,8.047.088A1.108,1.108,0,0,1,9.106,1.165L9.53,18.112a.98.98,0,0,1-1.006,1.024l-7.146-.182A1.107,1.107,0,0,1,.32,17.878L-.1.93A.98.98,0,0,1,.9-.094Z" transform="matrix(0.814, 0.581, -0.581, 0.814, 950.91, 797.064)"/>
        <path id="Path_452" data-name="Path 452" class="cls-22" d="M.9-.094,8.047.088A1.108,1.108,0,0,1,9.106,1.165L9.53,18.112a.98.98,0,0,1-1.006,1.024l-7.146-.182A1.107,1.107,0,0,1,.32,17.878L-.1.93A.98.98,0,0,1,.9-.094Z" transform="matrix(0.814, 0.581, -0.581, 0.814, 950.537, 796.273)"/>
        <path id="Path_428" data-name="Path 428" class="cls-2" d="M728.962,346.413l-.841-.636-.072.106a.568.568,0,0,1-.8.149l-2.687-2.024a.646.646,0,0,1-.137-.87l.072-.106-.8-.594a.687.687,0,0,0-.535-.133.712.712,0,0,0-.467.307L713.4,356.338a.787.787,0,0,0,.165,1.057l5.286,3.976a.687.687,0,0,0,.536.131.713.713,0,0,0,.466-.309l9.285-13.724a.789.789,0,0,0,.12-.567A.76.76,0,0,0,728.962,346.413Z" transform="translate(227.561 454.86)"/>
        <path id="Path_453" data-name="Path 453" class="cls-23" d="M.114-.012,1.139.014a.141.141,0,0,1,.134.137.124.124,0,0,1-.128.13L.121.255A.141.141,0,0,1-.013.118.124.124,0,0,1,.114-.012Z" transform="matrix(0.814, 0.581, -0.581, 0.814, 953.154, 798.832)"/>
        <ellipse id="Ellipse_78" data-name="Ellipse 78" class="cls-23" cx="0.145" cy="0.153" rx="0.145" ry="0.153" transform="translate(954.214 799.758)"/>
        <path id="Path_429" data-name="Path 429" class="cls-2" d="M706.953,99C692.067,99,680,111.729,680,127.432s28.24,67.7,28.24,67.7,25.666-51.979,25.666-67.7C733.906,111.729,721.839,99,706.953,99Zm0,47.392c-7.8,0-14.12-6.669-14.12-14.895s6.322-14.895,14.12-14.895,14.12,6.669,14.12,14.895a15.316,15.316,0,0,1-4.13,10.542,13.754,13.754,0,0,1-9.99,4.366Z" transform="translate(247.445 594.911)"/>
        <path id="Path_430" data-name="Path 430" class="cls-24" d="M706.953,99C692.067,99,680,111.729,680,127.432s28.24,67.7,28.24,67.7,25.666-51.979,25.666-67.7C733.906,111.729,721.839,99,706.953,99Zm0,47.392c-7.8,0-14.12-6.669-14.12-14.895s6.322-14.895,14.12-14.895,14.12,6.669,14.12,14.895a15.316,15.316,0,0,1-4.13,10.542,13.754,13.754,0,0,1-9.99,4.366Z" transform="translate(247.445 594.911)"/>
        <path id="Path_431" data-name="Path 431" class="cls-25" d="M706.953,85.07C692.067,85.07,680,97.8,680,113.5s28.24,73.626,28.24,73.626,25.666-57.916,25.666-73.621-12.07-28.438-26.957-28.436Zm0,47.392c-7.8,0-14.12-6.669-14.12-14.895s6.322-14.895,14.12-14.895,14.12,6.669,14.12,14.895-6.322,14.895-14.12,14.895Z" transform="translate(247.445 602.93)"/>
      </g>
    </g>
  </g>
</svg>
