<svg xmlns="http://www.w3.org/2000/svg" width="1005.551" height="870.424" viewBox="0 0 1005.551 870.424">
  <defs>
    <style>
      .cls-1 {
        fill: #f1b815;
      }

      .cls-2 {
        fill: #1a328e;
        opacity: 0.79;
      }

      .cls-3 {
        fill: #f1b815;
      }

      .cls-4 {
        fill: #f1b815;
      }
    </style>
  </defs>
  <g id="Group_2" data-name="Group 2" transform="translate(-690 -83)">
    <g id="abc" transform="translate(-1252 283)">
      <g id="footer-element-left" transform="translate(1942 -263.052)">
        <path id="Path_4" data-name="Path 4" class="cls-1" d="M790.3,726.191c-36.753-36.752-40.7-99.074-8.42-131.378,27.814-27.8,93.714-49.733,153.579-14.833,22.762,14.426,38.381,32.641,36.655,68.762-3.817,30.607-13.248,39.42-8.168,58q2.709,8.911,5.4,19.521c1.558,7.241,0,12.447-4.21,14.173-4.589,1.544-10.988,1.319-17.794.435-5.529-.786-11.676-2.61-18.033-2.708C914.328,750.048,839.363,775.307,790.3,726.191Z"/>
        <path id="Path_1" data-name="Path 1" class="cls-2" d="M128.1,810.376C-27.265,655.008-43.935,391.553,92.509,254.99c117.579-117.519,396.161-210.242,649.235-62.7C837.967,253.27,903.993,330.272,896.7,482.97c-16.136,129.385-56,166.64-34.526,245.184q11.448,37.67,22.839,82.519c6.585,30.611,0,52.62-17.8,59.916-19.4,6.526-46.45,5.577-75.222,1.839-23.374-3.322-49.357-11.034-76.231-11.449C652.4,911.226,335.5,1018.01,128.1,810.376Z"/>
        <path id="Path_2" data-name="Path 2" class="cls-3" d="M984.762,470.423l-14.255-2.507h0l-14.245-2.557a16.2,16.2,0,0,1-12.939-18.117A295.637,295.637,0,0,0,717.444,122.564a16.2,16.2,0,0,1-12.487-18.431l2.556-14.247,2.566-14.3a14.955,14.955,0,0,1,17.879-12.176A355.418,355.418,0,0,1,1002.34,457.884,14.954,14.954,0,0,1,984.762,470.423Z"/>
        <path id="Path_3" data-name="Path 3" class="cls-4" d="M824.42,428.061c-9.93-8.443-24.5-12.416-33.523-10.648-9.146,2.726-17.678,10.073-19.821,19.277-1.023,8.9,8.3,26.7,27.817,26.3,10.262-.773,18.694-11.718,25.481-20.281C829.1,436.428,828.671,432.161,824.42,428.061Z"/>
      </g>
    </g>
  </g>
</svg>
