<svg xmlns="http://www.w3.org/2000/svg" width="700" height="674" viewBox="0 0 700 674">
  <defs>
    <style>
      .cls-1 {
        fill: #febd1b;
      }

      .cls-2 {
        fill: #00024d;
        opacity: 0.8;
      }

      .cls-3 {
        fill: #ffb0a3;
      }

      .cls-4 {
        fill: #c4c4c4;
      }
    </style>
  </defs>
  <g id="Group_3" data-name="Group 3" transform="translate(-610 -203)">
    <g id="fot" transform="translate(-1440 337)">
      <g id="Group_3-2" data-name="Group 3">
        <g id="Group_2" data-name="Group 2">
          <g id="footer-element-left-mobile" transform="translate(2050 -134)">
            <g id="Group_1" data-name="Group 1">
              <path id="Path_3" data-name="Path 3" class="cls-1" d="M373.935,652.054c-28.673-27.7-31.75-74.668-6.569-99.014,21.7-20.951,73.112-37.482,119.817-11.179,17.758,10.872,29.943,24.6,28.6,51.823-2.977,23.067-10.335,29.709-6.371,43.711q2.112,6.717,4.215,14.712c1.215,5.457,0,9.381-3.285,10.682-3.58,1.163-8.572.994-13.882.327-4.314-.592-9.109-1.967-14.068-2.041C470.7,670.033,412.21,689.07,373.935,652.054Z"/>
            </g>
            <path id="Path_1" data-name="Path 1" class="cls-2" d="M99.941,523.109C-21.271,406.016-34.277,207.462,72.172,104.541,163.9,15.972,381.243-53.908,578.682,57.284c75.07,45.961,126.582,103.994,120.889,219.075-12.589,97.511-43.69,125.588-26.936,184.783q8.933,28.391,17.818,62.191c5.138,23.07,0,39.657-13.884,45.156-15.134,4.918-36.239,4.2-58.686,1.386-18.235-2.5-38.506-8.316-59.472-8.629C508.982,599.115,261.743,679.592,99.941,523.109Z"/>
            <path id="Path_2" data-name="Path 2" class="cls-3" d="M285.868,8.336c-7.747-6.363-19.111-9.358-26.154-8.025C252.579,2.366,245.922,7.9,244.251,14.84c-.8,6.71,6.473,20.12,21.7,19.824,8.006-.582,14.585-8.831,19.88-15.285C289.522,14.642,289.184,11.426,285.868,8.336Z"/>
            <rect id="Rectangle_1" data-name="Rectangle 1" class="cls-4" width="61.633" height="0.754" transform="translate(288.661 615.734)"/>
          </g>
        </g>
      </g>
    </g>
  </g>
</svg>
