<svg id="mobbg5" xmlns="http://www.w3.org/2000/svg" width="320" height="568" viewBox="0 0 320 568">
  <defs>
    <style>
      .cls-1 {
        fill: #ff6584;
      }

      .cls-1, .cls-2, .cls-3, .cls-4, .cls-5, .cls-8 {
        opacity: 0.4;
      }

      .cls-11, .cls-2, .cls-7 {
        fill: #3f3d56;
      }

      .cls-3, .cls-9 {
        fill: #e6e6e6;
      }

      .cls-13, .cls-4, .cls-6 {
        fill: #fff;
      }

      .cls-12, .cls-5 {
        fill: #ccc;
      }

      .cls-6, .cls-7 {
        opacity: 0.7;
      }

      .cls-21, .cls-22, .cls-8 {
        fill: #00024d;
      }

      .cls-10 {
        fill: #febd1b;
      }

      .cls-14 {
        fill: #f2f2f2;
      }

      .cls-15 {
        fill: #2f2e41;
      }

      .cls-16 {
        fill: #ffb8b8;
      }

      .cls-17 {
        fill: #575a89;
      }

      .cls-18 {
        opacity: 0.2;
      }

      .cls-19 {
        fill: #d0cde1;
      }

      .cls-20 {
        fill: #a0616a;
      }

      .cls-22 {
        stroke: #707070;
        opacity: 0.81;
      }

      .cls-23 {
        stroke: none;
      }

      .cls-24 {
        fill: none;
      }
    </style>
  </defs>
  <g id="mob-bg">
    <g id="Group_17" data-name="Group 17" transform="translate(0 252.769)">
      <ellipse id="Ellipse_1" data-name="Ellipse 1" class="cls-1" cx="23.632" cy="25.154" rx="23.632" ry="25.154" transform="translate(66.229 14.222)"/>
      <path id="Path_5" data-name="Path 5" class="cls-2" d="M582.31,77.725H553.963V50.3Z" transform="translate(-354.453 -31.015)"/>
      <rect id="Rectangle_4" data-name="Rectangle 4" class="cls-3" width="142.602" height="209.701" transform="translate(88.567 45.812)"/>
      <rect id="Rectangle_5" data-name="Rectangle 5" class="cls-4" width="16.777" height="37.628" transform="translate(102.794 60.515)"/>
      <rect id="Rectangle_6" data-name="Rectangle 6" class="cls-4" width="16.777" height="37.628" transform="translate(128.744 60.515)"/>
      <rect id="Rectangle_7" data-name="Rectangle 7" class="cls-4" width="16.777" height="37.628" transform="translate(100.583 113.847)"/>
      <rect id="Rectangle_8" data-name="Rectangle 8" class="cls-4" width="16.777" height="37.628" transform="translate(128.744 113.847)"/>
      <rect id="Rectangle_9" data-name="Rectangle 9" class="cls-4" width="16.777" height="37.628" transform="translate(100.583 163.194)"/>
      <rect id="Rectangle_10" data-name="Rectangle 10" class="cls-4" width="16.777" height="37.628" transform="translate(128.112 162.521)"/>
      <rect id="Rectangle_11" data-name="Rectangle 11" class="cls-5" width="16.777" height="37.628" transform="translate(152.496 217.969)"/>
      <rect id="Rectangle_12" data-name="Rectangle 12" class="cls-4" width="16.777" height="37.628" transform="translate(177.843 162.521)"/>
      <rect id="Rectangle_13" data-name="Rectangle 13" class="cls-6" width="16.777" height="37.628" transform="translate(206.004 162.521)"/>
      <rect id="Rectangle_14" data-name="Rectangle 14" class="cls-4" width="16.777" height="37.628" transform="translate(178.475 113.448)"/>
      <rect id="Rectangle_15" data-name="Rectangle 15" class="cls-6" width="16.777" height="37.628" transform="translate(206.636 113.448)"/>
      <rect id="Rectangle_16" data-name="Rectangle 16" class="cls-4" width="16.777" height="37.628" transform="translate(178.475 60.515)"/>
      <rect id="Rectangle_17" data-name="Rectangle 17" class="cls-6" width="16.777" height="37.628" transform="translate(206.636 60.515)"/>
      <rect id="Rectangle_18" data-name="Rectangle 18" class="cls-2" width="142.602" height="5.74" transform="translate(88.567 94.281)"/>
      <rect id="Rectangle_19" data-name="Rectangle 19" class="cls-2" width="142.602" height="3.189" transform="translate(88.567 138.924)"/>
      <rect id="Rectangle_20" data-name="Rectangle 20" class="cls-2" width="142.602" height="3.189" transform="translate(88.567 128.72)"/>
      <rect id="Rectangle_21" data-name="Rectangle 21" class="cls-2" width="25.51" height="2.996" transform="translate(102.648 177.827) rotate(90)"/>
      <rect id="Rectangle_22" data-name="Rectangle 22" class="cls-2" width="25.51" height="2.996" transform="translate(119.424 177.827) rotate(90)"/>
      <rect id="Rectangle_23" data-name="Rectangle 23" class="cls-2" width="25.51" height="2.996" transform="translate(136.201 177.827) rotate(90)"/>
      <rect id="Rectangle_24" data-name="Rectangle 24" class="cls-2" width="25.51" height="2.996" transform="translate(152.978 177.827) rotate(90)"/>
      <rect id="Rectangle_25" data-name="Rectangle 25" class="cls-2" width="25.51" height="2.996" transform="translate(169.754 177.827) rotate(90)"/>
      <rect id="Rectangle_26" data-name="Rectangle 26" class="cls-2" width="25.51" height="2.996" transform="translate(186.531 177.827) rotate(90)"/>
      <rect id="Rectangle_27" data-name="Rectangle 27" class="cls-2" width="25.51" height="2.996" transform="translate(203.308 177.827) rotate(90)"/>
      <rect id="Rectangle_28" data-name="Rectangle 28" class="cls-7" width="25.51" height="2.996" transform="translate(220.085 177.827) rotate(90)"/>
      <rect id="Rectangle_29" data-name="Rectangle 29" class="cls-2" width="25.51" height="2.996" transform="translate(102.947 129.358) rotate(90)"/>
      <rect id="Rectangle_30" data-name="Rectangle 30" class="cls-2" width="25.51" height="2.996" transform="translate(119.724 129.357) rotate(90)"/>
      <rect id="Rectangle_31" data-name="Rectangle 31" class="cls-2" width="25.51" height="2.996" transform="translate(136.5 129.358) rotate(90)"/>
      <rect id="Rectangle_32" data-name="Rectangle 32" class="cls-2" width="25.51" height="2.996" transform="translate(153.278 129.357) rotate(90)"/>
      <rect id="Rectangle_33" data-name="Rectangle 33" class="cls-2" width="25.51" height="2.996" transform="translate(170.054 129.358) rotate(90)"/>
      <rect id="Rectangle_34" data-name="Rectangle 34" class="cls-2" width="25.51" height="2.996" transform="translate(186.831 129.357) rotate(90)"/>
      <rect id="Rectangle_35" data-name="Rectangle 35" class="cls-2" width="25.51" height="2.996" transform="translate(203.608 129.358) rotate(90)"/>
      <rect id="Rectangle_36" data-name="Rectangle 36" class="cls-7" width="25.51" height="2.996" transform="translate(220.384 129.357) rotate(90)"/>
      <rect id="Rectangle_37" data-name="Rectangle 37" class="cls-2" width="25.51" height="2.996" transform="translate(102.947 72.597) rotate(90)"/>
      <rect id="Rectangle_38" data-name="Rectangle 38" class="cls-2" width="25.51" height="2.996" transform="translate(119.724 72.597) rotate(90)"/>
      <rect id="Rectangle_39" data-name="Rectangle 39" class="cls-2" width="25.51" height="2.996" transform="translate(136.501 72.597) rotate(90)"/>
      <rect id="Rectangle_40" data-name="Rectangle 40" class="cls-2" width="25.51" height="2.996" transform="translate(153.278 72.597) rotate(90)"/>
      <rect id="Rectangle_41" data-name="Rectangle 41" class="cls-2" width="25.51" height="2.996" transform="translate(170.054 72.597) rotate(90)"/>
      <rect id="Rectangle_42" data-name="Rectangle 42" class="cls-2" width="25.51" height="2.996" transform="translate(186.831 72.597) rotate(90)"/>
      <rect id="Rectangle_43" data-name="Rectangle 43" class="cls-2" width="25.51" height="2.996" transform="translate(203.608 72.597) rotate(90)"/>
      <rect id="Rectangle_44" data-name="Rectangle 44" class="cls-7" width="25.51" height="2.996" transform="translate(220.384 72.597) rotate(90)"/>
      <rect id="Rectangle_45" data-name="Rectangle 45" class="cls-2" width="142.602" height="3.189" transform="translate(88.567 81.526)"/>
      <rect id="Rectangle_46" data-name="Rectangle 46" class="cls-2" width="142.602" height="3.189" transform="translate(88.567 71.322)"/>
      <rect id="Rectangle_47" data-name="Rectangle 47" class="cls-2" width="142.602" height="5.74" transform="translate(88.567 149.766)"/>
      <rect id="Rectangle_48" data-name="Rectangle 48" class="cls-2" width="155.726" height="8.553" transform="translate(82.005 43.452)"/>
      <path id="Path_6" data-name="Path 6" class="cls-4" d="M315.793,576.735V568.6H306.62v8.136h9.173Z" transform="translate(-196.19 -350.63)"/>
      <path id="Path_7" data-name="Path 7" class="cls-4" d="M315.028,606.8H306.62v8.136h9.173V606.8Z" transform="translate(-196.19 -374.188)"/>
      <rect id="Rectangle_49" data-name="Rectangle 49" class="cls-4" width="9.173" height="8.136" transform="translate(125.718 217.969)"/>
      <rect id="Rectangle_50" data-name="Rectangle 50" class="cls-4" width="9.173" height="8.136" transform="translate(125.718 232.614)"/>
      <path id="Path_8" data-name="Path 8" class="cls-4" d="M523.526,576.735V568.6h-9.173v8.136h9.173Z" transform="translate(-329.108 -350.63)"/>
      <path id="Path_9" data-name="Path 9" class="cls-4" d="M522.761,606.8h-8.408v8.136h9.173V606.8Z" transform="translate(-329.108 -374.188)"/>
      <rect id="Rectangle_51" data-name="Rectangle 51" class="cls-4" width="9.173" height="8.136" transform="translate(200.533 217.969)"/>
      <rect id="Rectangle_52" data-name="Rectangle 52" class="cls-4" width="9.173" height="8.136" transform="translate(200.533 232.614)"/>
      <rect id="Rectangle_53" data-name="Rectangle 53" class="cls-2" width="142.602" height="5.74" transform="translate(88.567 198.235)"/>
      <rect id="Rectangle_54" data-name="Rectangle 54" class="cls-2" width="142.602" height="3.189" transform="translate(88.567 188.031)"/>
      <rect id="Rectangle_55" data-name="Rectangle 55" class="cls-2" width="142.602" height="3.189" transform="translate(88.567 177.827)"/>
      <path id="Path_10" data-name="Path 10" class="cls-8" d="M487.752,728.82q0-.266-.007-.53c-.128-4.7-4.51-5.976-6.858-3.751a3.89,3.89,0,0,0-5.343,0c-2.359-2.19-6.653-1.006-6.795,3.642q-.008.263-.009.53a29.026,29.026,0,0,0,.169,2.925h18.677Q487.738,730.233,487.752,728.82Z" transform="translate(-356.013 -476.041)"/>
      <path id="Path_11" data-name="Path 11" class="cls-8" d="M693.862,728.82q0-.266-.007-.53c-.128-4.7-4.51-5.976-6.859-3.751a3.89,3.89,0,0,0-5.343,0c-2.359-2.19-6.653-1.006-6.795,3.642q-.008.263-.009.53a28.982,28.982,0,0,0,.169,2.925H693.7Q693.848,730.233,693.862,728.82Z" transform="translate(-487.893 -476.041)"/>
      <path id="Path_12" data-name="Path 12" class="cls-9" d="M851.182,570.969h-2.888l.963-60.058h.963Z" transform="translate(-542.78 -315.056)"/>
      <path id="Path_13" data-name="Path 13" class="cls-9" d="M986.24,444.13l4.663-7.67a119.075,119.075,0,0,0-4.784-11.919l-3.015,2.592,2.387-3.927c-2.275-4.767-4.065-7.77-4.065-7.77s-9.351,15.685-12.475,32.292l5.983,9.842-6.624-5.694a49.479,49.479,0,0,0-.363,5.834c0,19.668,6.035,35.612,13.479,35.612S994.9,477.377,994.9,457.709a64.8,64.8,0,0,0-3.084-18.377Z" transform="translate(-675.43 -286.086)"/>
      <path id="Path_14" data-name="Path 14" class="cls-10" d="M718.593,448.447H656.97v48.3h.037v9.615l9.034-9.615h52.552Z" transform="translate(-420.362 -276.537)"/>
      <rect id="Rectangle_56" data-name="Rectangle 56" class="cls-9" width="54.672" height="2.3" transform="translate(165.631 275.054)"/>
      <rect id="Rectangle_57" data-name="Rectangle 57" class="cls-9" width="54.968" height="2.3" transform="translate(265.032 275.054)"/>
      <rect id="Rectangle_58" data-name="Rectangle 58" class="cls-9" width="54.743" height="2.3" transform="translate(66.229 275.054)"/>
      <rect id="Rectangle_59" data-name="Rectangle 59" class="cls-11" width="319.775" height="0.641" transform="translate(0 255.545)"/>
      <rect id="Rectangle_60" data-name="Rectangle 60" class="cls-11" width="6.438" height="1.088" transform="matrix(-1, -0.001, 0.001, -1, 257.243, 266.626)"/>
      <path id="Path_15" data-name="Path 15" class="cls-10" d="M722.892,728.5l1.328.327,50.482.029.454-1.126a12.028,12.028,0,0,0,.785-6.144c-.217-1.555-.762-3.1-2-3.771l-2.24-15.882-27.929-.053-10.806,9.277s-5.1-.1-7.866,3.572a8.946,8.946,0,0,0-1.693,4.744l-.109,1.909Z" transform="translate(-518.632 -462.727)"/>
      <ellipse id="Ellipse_2" data-name="Ellipse 2" class="cls-11" cx="6.234" cy="6.635" rx="6.234" ry="6.635" transform="translate(209.114 258.877)"/>
      <ellipse id="Ellipse_3" data-name="Ellipse 3" class="cls-12" cx="3.281" cy="3.492" rx="3.281" ry="3.492" transform="translate(212.067 262.02)"/>
      <ellipse id="Ellipse_4" data-name="Ellipse 4" class="cls-11" cx="6.234" cy="6.635" rx="6.234" ry="6.635" transform="translate(239.873 258.895)"/>
      <ellipse id="Ellipse_5" data-name="Ellipse 5" class="cls-12" cx="3.281" cy="3.492" rx="3.281" ry="3.492" transform="translate(242.826 262.038)"/>
      <path id="Path_16" data-name="Path 16" class="cls-13" d="M607.043,634.926l15.08.007h1.841l3.108,0v-.241l0-2.909,0-3.266h-2.067l-1.841,0-3.26,0h-1.841l-3.764,0Z" transform="translate(-388.416 -387.575)"/>
      <path id="Path_17" data-name="Path 17" class="cls-13" d="M669.466,634.952l7.969,0,0-1.664v-2.909l0-1.843h-1.167l-1.841,0-4.964,0Z" transform="translate(-428.357 -387.59)"/>
      <rect id="Rectangle_61" data-name="Rectangle 61" class="cls-11" width="1.022" height="2.067" transform="matrix(-1, -0.001, 0.001, -1, 238.651, 254.215)"/>
      <rect id="Rectangle_62" data-name="Rectangle 62" class="cls-11" width="1.088" height="1.942" transform="matrix(-0.001, 1, -1, -0.001, 222.714, 249.202)"/>
      <path id="Path_18" data-name="Path 18" class="cls-11" d="M0,0H.112A2.208,2.208,0,0,1,2.248,2.273h0A2.208,2.208,0,0,1,.113,4.547H0V0Z" transform="matrix(-1, -0.001, 0.001, -1, 221.996, 249.68)"/>
      <path id="Path_19" data-name="Path 19" class="cls-11" d="M724.02,742.055a3.312,3.312,0,0,0,3.529-2.52,3.6,3.6,0,0,0-1.727-4.133,8.946,8.946,0,0,0-1.693,4.744Z" transform="translate(-519.354 -483.395)"/>
      <path id="Path_20" data-name="Path 20" class="cls-14" d="M651.813,628.524l3.9,6.177,0-2.908-2.065-3.267Z" transform="translate(-417.062 -387.583)"/>
      <path id="Path_21" data-name="Path 21" class="cls-14" d="M683.255,628.542l3.005,4.754v-2.909l-1.165-1.843Z" transform="translate(-437.18 -387.594)"/>
      <path id="Path_22" data-name="Path 22" class="cls-14" d="M637.649,628.518l4.057,6.419h1.841l-4.057-6.419Z" transform="translate(-407.999 -387.579)"/>
      <path id="Path_23" data-name="Path 23" class="cls-3" d="M539.217,78.414l-.042.024a2.917,2.917,0,0,1-2.936.011l-.078-.044a2.93,2.93,0,0,0-2.933.011l-.039.023a2.917,2.917,0,0,1-2.936.011l-.081-.046a2.914,2.914,0,0,0-2.9-.005c-1.366.783-3.212,2.122-3.2,3.633q0,.09.009.179c.159,1.57,4.97,1.97,7.613,1.23a12.661,12.661,0,0,0,5.986,0c2.631.752,7.54.321,7.684-1.267q.008-.089.008-.179c-.008-1.513-1.871-2.837-3.245-3.609A2.91,2.91,0,0,0,539.217,78.414Z" transform="translate(-391.412 -78.012)"/>
      <path id="Path_24" data-name="Path 24" class="cls-9" d="M907.217,213.63l-.042.024a2.917,2.917,0,0,1-2.936.011l-.078-.044a2.93,2.93,0,0,0-2.933.011l-.039.023a2.916,2.916,0,0,1-2.936.011l-.081-.046a2.914,2.914,0,0,0-2.9-.005c-1.366.783-3.212,2.122-3.2,3.633q0,.09.009.179c.159,1.57,4.97,1.97,7.612,1.23a12.661,12.661,0,0,0,5.986,0c2.632.752,7.54.321,7.684-1.267q.008-.089.008-.179c-.008-1.513-1.871-2.837-3.245-3.609A2.91,2.91,0,0,0,907.217,213.63Z" transform="translate(-626.877 -161.394)"/>
      <path id="Path_25" data-name="Path 25" class="cls-9" d="M262.787,221.178l-.042.024a2.917,2.917,0,0,1-2.936.011l-.078-.044a2.93,2.93,0,0,0-2.933.011l-.039.023a2.917,2.917,0,0,1-2.936.011l-.081-.046a2.913,2.913,0,0,0-2.9-.005c-1.366.783-3.212,2.122-3.2,3.633q0,.09.01.179c.159,1.57,4.97,1.97,7.612,1.23a12.661,12.661,0,0,0,5.986,0c2.632.752,7.54.321,7.684-1.267q.008-.089.008-.179c-.008-1.513-1.871-2.837-3.245-3.609A2.911,2.911,0,0,0,262.787,221.178Z" transform="translate(-214.539 -166.048)"/>
      <rect id="Rectangle_63" data-name="Rectangle 63" class="cls-11" width="6.438" height="1.088" transform="translate(33.234 278.568)"/>
      <path id="Path_26" data-name="Path 26" class="cls-10" d="M300.7,762.506l-1.328.327-50.482.029-.454-1.126a12.03,12.03,0,0,1-.785-6.144c.217-1.555.762-3.1,2-3.771l2.24-15.882,27.929-.053,10.806,9.277s5.1-.1,7.866,3.572a8.946,8.946,0,0,1,1.693,4.744l.109,1.909Z" transform="translate(-214.485 -483.694)"/>
      <ellipse id="Ellipse_6" data-name="Ellipse 6" class="cls-11" cx="6.234" cy="6.635" rx="6.234" ry="6.635" transform="translate(68.898 271.912)"/>
      <ellipse id="Ellipse_7" data-name="Ellipse 7" class="cls-12" cx="3.281" cy="3.492" rx="3.281" ry="3.492" transform="translate(71.851 275.054)"/>
      <ellipse id="Ellipse_8" data-name="Ellipse 8" class="cls-11" cx="6.234" cy="6.635" rx="6.234" ry="6.635" transform="translate(38.139 271.929)"/>
      <ellipse id="Ellipse_9" data-name="Ellipse 9" class="cls-12" cx="3.281" cy="3.492" rx="3.281" ry="3.492" transform="translate(41.092 275.072)"/>
      <path id="Path_27" data-name="Path 27" class="cls-13" d="M163.915,668.926l-15.08.007H147l-3.108,0v-.242l0-2.909,0-3.266h2.068l1.841,0,3.26,0h1.841l3.764,0Z" transform="translate(-92.063 -408.542)"/>
      <path id="Path_28" data-name="Path 28" class="cls-13" d="M122.916,668.953l-7.969,0,0-1.664v-2.909l0-1.843h1.167l1.841,0,4.964,0Z" transform="translate(-73.546 -408.557)"/>
      <rect id="Rectangle_64" data-name="Rectangle 64" class="cls-11" width="1.022" height="2.067" transform="translate(51.826 265.181)"/>
      <rect id="Rectangle_65" data-name="Rectangle 65" class="cls-11" width="1.088" height="1.942" transform="matrix(0.001, 1, -1, 0.001, 69.707, 262.233)"/>
      <path id="Path_29" data-name="Path 29" class="cls-11" d="M190.143,673.457h.112a2.208,2.208,0,0,1,2.136,2.273h0A2.208,2.208,0,0,1,190.255,678h-.112v-4.547Z" transform="translate(-121.663 -415.291)"/>
      <path id="Path_30" data-name="Path 30" class="cls-11" d="M387.512,776.056a3.312,3.312,0,0,1-3.529-2.52,3.6,3.6,0,0,1,1.727-4.133,8.946,8.946,0,0,1,1.693,4.744Z" transform="translate(-301.699 -504.362)"/>
      <path id="Path_31" data-name="Path 31" class="cls-14" d="M147.8,662.524l-3.9,6.178,0-2.909,2.065-3.266Z" transform="translate(-92.067 -408.549)"/>
      <path id="Path_32" data-name="Path 32" class="cls-14" d="M117.953,662.543l-3.005,4.754v-2.909l1.165-1.843Z" transform="translate(-73.55 -408.561)"/>
      <path id="Path_33" data-name="Path 33" class="cls-14" d="M158.422,662.518l-4.057,6.419h-1.841l4.057-6.419Z" transform="translate(-97.592 -408.545)"/>
      <path id="Path_34" data-name="Path 34" class="cls-13" d="M722.547,500.326l-7.869-10.769,4.576-3.789,3.726,5.1,12.587-14.142,4.209,4.244Z" transform="translate(-457.286 -293.975)"/>
      <path id="Path_35" data-name="Path 35" class="cls-10" d="M6.34,480.325H67.963v48.3h-.037v9.615l-9.034-9.615H6.34Z" transform="translate(-4.057 -296.195)"/>
      <path id="Path_36" data-name="Path 36" class="cls-13" d="M73.061,535.2l-7.869-10.769,4.576-3.789,3.726,5.1L86.081,511.6l4.209,4.244Z" transform="translate(-41.713 -315.483)"/>
      <g id="Group_15" data-name="Group 15" transform="translate(0 223.198)">
        <path id="Path_126" data-name="Path 126" class="cls-15" d="M296.272,624.172s0,12.159,2.622,15.348c0,0,.562,1.595.749,2.193a8.719,8.719,0,0,0,.375,1v.8s5.056-.6,5.618-1.993l-.936-1.2s-.187-.2,0-.8a.432.432,0,0,0-.021-.417.377.377,0,0,0-.354-.181l-1.311-3.189.187-13.156-.936-18.139-8.052-.4Z" transform="translate(-240.543 -560.644)"/>
        <path id="Path_127" data-name="Path 127" class="cls-15" d="M310.336,702.592s-1.311,4.186,0,4.385,12.733.4,12.546-1.2-3.932-1.4-3.932-1.4l-3.932-2.591Z" transform="translate(-250.694 -620.925)"/>
        <path id="Path_128" data-name="Path 128" class="cls-15" d="M258.5,605.08a9.523,9.523,0,0,0,1.123,5.382c1.5,2.791.562,12.159.562,12.159l-13.3,12.358s2.622,4.784,3.558,4.585,15.729-12.956,15.729-12.956l5.8-20.73Z" transform="translate(-208.324 -561.285)"/>
        <path id="Path_129" data-name="Path 129" class="cls-15" d="M241.13,681.7s-4.023,1.062-3.48,2.348,6.5,11.662,7.666,10.64-1-4.282-1-4.282l-.049-4.923Z" transform="translate(-202.376 -608.532)"/>
        <ellipse id="Ellipse_19" data-name="Ellipse 19" class="cls-16" cx="4.307" cy="4.585" rx="4.307" ry="4.585" transform="translate(53.177 2.134)"/>
        <path id="Path_130" data-name="Path 130" class="cls-16" d="M290,512.584l.19,5.9,3.624,1.524s.355-6.041.857-6.376S290,512.584,290,512.584Z" transform="translate(-235.907 -504.247)"/>
        <path id="Path_131" data-name="Path 131" class="cls-17" d="M283.68,525.5s-5.056-5.382-6.367-5.183-1.311.8-1.311,1.2.375.6,0,.8-.749,0-.749.6-3.371,6.578-2.247,13.156,2.434,9.767,1.873,13.355-.187,4.385-.187,4.385,14.044,1.2,14.231-.2-.562-.6.375-1.595.562-1,.562-1.595S285.739,525.5,283.68,525.5Z" transform="translate(-224.885 -509.011)"/>
        <path id="Path_132" data-name="Path 132" class="cls-16" d="M295.772,601.674s2.247,5.781,3.932,4.385-.749-6.179-.749-6.179Z" transform="translate(-239.599 -558.079)"/>
        <path id="Path_133" data-name="Path 133" class="cls-17" d="M275.137,534.824s-4.4.536-2.762,9.138,8,18.568,8,18.568l4.307-2.193-5.618-11.76,1.311-7.375S281.129,534.226,275.137,534.824Z" transform="translate(-224.395 -517.94)"/>
        <path id="Path_134" data-name="Path 134" class="cls-18" d="M151.561,401.423l6.179,10.963-.561.6Z" transform="translate(-96.98 -370.685)"/>
        <path id="Path_135" data-name="Path 135" class="cls-18" d="M142.479,414.75l4.956,8.645H145.75Z" transform="translate(-91.169 -378.903)"/>
        <path id="Path_136" data-name="Path 136" class="cls-15" d="M286.436,500.311a5.916,5.916,0,0,1,1.131-.359,3.176,3.176,0,0,0,1.966-3.531,1.913,1.913,0,0,1-.071-.582,1.068,1.068,0,0,1,.87-.816,8.106,8.106,0,0,0,1.212-.246,1.949,1.949,0,0,0,1.071-1.567,3.408,3.408,0,0,0-.406-1.951l-.145.444a1.657,1.657,0,0,1-.474-.754.991.991,0,0,0-.744.637c-.233.146-.266-.454-.523-.542a.44.44,0,0,0-.321.084,2.442,2.442,0,0,1-1.675-.105,5.937,5.937,0,0,0-2.928,0,3.436,3.436,0,0,0-1.73.948,4.491,4.491,0,0,0-.809,1.481,9.019,9.019,0,0,0-.653,4.142,6.049,6.049,0,0,0,1.3,3.107c.371.455,1.58,2.04,2.243,1.77C286.581,502.126,285.455,500.863,286.436,500.311Z" transform="translate(-230.902 -490.837)"/>
        <path id="Path_454" data-name="Path 454" class="cls-18" d="M.007.327l14.606-.3L14.607.3,0,.6Z" transform="translate(57.27 65.2) rotate(-69.123)"/>
        <ellipse id="Ellipse_20" data-name="Ellipse 20" class="cls-19" cx="0.266" cy="0.284" rx="0.266" ry="0.284" transform="translate(58.501 17.014)"/>
        <line id="Line_1" data-name="Line 1" class="cls-19" x2="2.264" y2="7.798" transform="translate(58.768 17.297)"/>
        <path id="Path_137" data-name="Path 137" class="cls-19" d="M305.005,543.67a.134.134,0,0,1-.127-.1l-2.264-7.8a.143.143,0,0,1,.088-.177.132.132,0,0,1,.167.093l2.264,7.8a.149.149,0,0,1-.02.126A.131.131,0,0,1,305.005,543.67Z" transform="translate(-243.973 -518.433)"/>
        <ellipse id="Ellipse_21" data-name="Ellipse 21" class="cls-15" cx="4.498" cy="4.788" rx="4.498" ry="4.788" transform="translate(284.622 4.587)"/>
        <path id="Path_138" data-name="Path 138" class="cls-20" d="M952.514,590.944l-.682,1.452s-2.182,3.774-.682,4.21,1.977-2.831,1.977-2.831l.273-1.742Z" transform="translate(-669.787 -552.568)"/>
        <path id="Path_139" data-name="Path 139" class="cls-19" d="M817.6,402.033l-1.7,4.79-1.7,3.339,2.114,1.452,1.7-3.194,2.046-5.008Z" transform="translate(-532.144 -371.061)"/>
        <path id="Path_140" data-name="Path 140" class="cls-20" d="M976.891,622.783l3.409,3.847,6,10.815,2.591-.871-3.067-6.46s-1.773-4.936-2.659-5.589-2.387-4.936-2.387-4.936l-1.636-1.379Z" transform="translate(-686.595 -569.382)"/>
        <path id="Path_141" data-name="Path 141" class="cls-20" d="M942.728,635.28l-.273,1.234s-.886,3.847-2.25,5.589l-3.273,6.025-2.455-.871,4.841-12.194Z" transform="translate(-659.455 -579.774)"/>
        <ellipse id="Ellipse_22" data-name="Ellipse 22" class="cls-20" cx="3.682" cy="3.92" rx="3.682" ry="3.92" transform="translate(284.671 7.128)"/>
        <path id="Path_142" data-name="Path 142" class="cls-20" d="M973.483,524.673l.477,4.21-3.068,1.6s0-3.629-.818-4.573Z" transform="translate(-682.233 -511.702)"/>
        <path id="Path_143" data-name="Path 143" class="cls-20" d="M1003.09,595.489l.341,1.234s2.25,4.718.341,4.718-2.25-4.355-2.25-4.355l-.2-1.089Z" transform="translate(-702.224 -555.371)"/>
        <path id="Path_144" data-name="Path 144" class="cls-15" d="M952.634,582.613l.477,3.557-5.8,12.993-.341,3.774,10.842,1.452,2.387-7.041,3.818,5.226-2.182-5.371a22.923,22.923,0,0,1-.477-4.573c.2-.944-.136-5.662-.75-6.823S952.634,582.613,952.634,582.613Z" transform="translate(-667.452 -547.431)"/>
        <path id="Path_145" data-name="Path 145" class="cls-15" d="M995.808,666.519l3.273-1.161,1.023,1.742s1.978.581,1.909,2.1a27.556,27.556,0,0,0,.341,4.137l-1.432.145-.545-2.976-2.8,3.557s-4.978.29-5.182-.581,3.546-1.815,3.546-1.815l.614-3.121Z" transform="translate(-696.512 -598.456)"/>
        <path id="Path_146" data-name="Path 146" class="cls-15" d="M921.066,665.736l3,1.016v.726a5.162,5.162,0,0,1,.75,2.686c-.136,1.234-.75,4.21-.75,4.21H922.5l.068-2.758-3.137,2.758s-5.591-.435-5.591-1.379,4.3-1.6,4.3-1.6Z" transform="translate(-646.249 -598.689)"/>
        <path id="Path_147" data-name="Path 147" class="cls-19" d="M964.993,533.745s2.8-2.976,4.091-2.25V532.8s1.909.944,1.977,2.4,2.046,14.662,2.046,14.662l4.637,17.2s-1.432,2.4-6.682-.29l-3.273-11.831s3.478,13.356,1.773,13.138-8.387-16.767-8.387-16.767l.477-7.839s-1.091-3.412,1.091-5.734Z" transform="translate(-676.539 -515.838)"/>
        <path id="Path_148" data-name="Path 148" class="cls-19" d="M980.945,538.685a4.138,4.138,0,0,1,1.977,2.323c.818,1.887,4.91,15.17,4.91,15.17l1.091,4.718-3.068.8-1.5-4.863L978.763,545.8S977.876,539.991,980.945,538.685Z" transform="translate(-687.716 -520.343)"/>
        <path id="Path_149" data-name="Path 149" class="cls-15" d="M967.971,501.586a2.789,2.789,0,0,0-1.217-2.237,3.771,3.771,0,0,0,.462-2.568,1.886,1.886,0,0,0-1.387-1.321,3.4,3.4,0,0,0-1.077.015l-1.68.2a3.5,3.5,0,0,0-1.575.451,1.965,1.965,0,0,0-.844,1.5,2,2,0,0,0,.634,1.615,7.08,7.08,0,0,0-2.5,3.259,4.87,4.87,0,0,1,3.175-1.21,3.1,3.1,0,0,1,3.18,2.952,6.331,6.331,0,0,0,.1,1.25.877.877,0,0,0,.849.719,2.346,2.346,0,0,1-.153-1.548l0-.008a.448.448,0,0,1,.239-.218.65.65,0,0,1,.565.035.726.726,0,0,1,.349.474c.13.533.339,1.214.522,1.033.239-.237.138-2.322.2-2.645A6.454,6.454,0,0,0,967.971,501.586Z" transform="translate(-675.012 -493.666)"/>
        <path id="Path_150" data-name="Path 150" class="cls-19" d="M971.146,505.487a29.843,29.843,0,0,1-5.463-.086" transform="translate(-679.423 -499.818)"/>
        <path id="Path_151" data-name="Path 151" class="cls-15" d="M979.947,498.57a3.772,3.772,0,0,0,.462-2.568,1.942,1.942,0,0,0-.645-.965,1.929,1.929,0,0,1,.986,1.182,3.77,3.77,0,0,1-.462,2.568C979.991,498.74,980.692,498.993,979.947,498.57Z" transform="translate(-688.433 -493.427)"/>
        <path id="Path_152" data-name="Path 152" class="cls-18" d="M837.194,387.737l5.319,10.017,2.046,5.444-2.864-5.226Z" transform="translate(-546.864 -362.245)"/>
        <path id="Path_153" data-name="Path 153" class="cls-21" d="M248.781,705.849s-1.667,3.863-3.021,4.947c-1.371-1.086-3.071-4.947-3.071-4.947s-1.667,3.863-3.021,4.947c-1.371-1.086-3.071-4.947-3.071-4.947s-4.735,5.153-4.722,7.593c0,.061,0,.122.01.182.162,1.6,5.057,2,7.747,1.252a12.886,12.886,0,0,0,6.092,0c2.678.765,7.673.327,7.819-1.289.006-.061.008-.121.008-.182C253.537,710.965,248.781,705.849,248.781,705.849Z" transform="translate(-198.713 -623.425)"/>
        <path id="Path_154" data-name="Path 154" class="cls-9" d="M525.021,705.849s-1.667,3.863-3.021,4.947c-1.371-1.086-3.071-4.947-3.071-4.947s-1.667,3.863-3.021,4.947c-1.371-1.086-3.071-4.947-3.071-4.947s-4.735,5.153-4.722,7.593c0,.061,0,.122.01.182.162,1.6,5.057,2,7.747,1.252a12.885,12.885,0,0,0,6.092,0c2.678.765,7.673.327,7.819-1.289.005-.061.008-.121.008-.182C529.777,710.965,525.021,705.849,525.021,705.849Z" transform="translate(-380.257 -623.425)"/>
        <path id="Path_155" data-name="Path 155" class="cls-21" d="M799.472,705.849s-1.667,3.863-3.021,4.947c-1.371-1.086-3.071-4.947-3.071-4.947s-1.667,3.863-3.021,4.947c-1.371-1.086-3.071-4.947-3.071-4.947s-4.735,5.153-4.722,7.593c0,.061,0,.122.01.182.162,1.6,5.057,2,7.747,1.252a12.885,12.885,0,0,0,6.092,0c2.678.765,7.673.327,7.819-1.289.006-.061.008-.121.008-.182C804.229,710.965,799.472,705.849,799.472,705.849Z" transform="translate(-559.437 -623.425)"/>
        <rect id="Rectangle_156" data-name="Rectangle 156" class="cls-11" width="320" height="0.641" transform="translate(0 91.194)"/>
      </g>
    </g>
    <g id="Rectangle_202" data-name="Rectangle 202" class="cls-22">
      <rect class="cls-23" width="320" height="568"/>
      <rect class="cls-24" x="0.5" y="0.5" width="319" height="567"/>
    </g>
  </g>
</svg>
