<svg id="mobbg" xmlns="http://www.w3.org/2000/svg" width="414" height="896" viewBox="0 0 414 896">
  <defs>
    <style>
      .cls-1 {
        fill: #ff6584;
      }

      .cls-1, .cls-2, .cls-3, .cls-4, .cls-5, .cls-8 {
        opacity: 0.4;
      }

      .cls-11, .cls-2, .cls-7 {
        fill: #3f3d56;
      }

      .cls-3, .cls-9 {
        fill: #e6e6e6;
      }

      .cls-13, .cls-4, .cls-6 {
        fill: #fff;
      }

      .cls-12, .cls-5 {
        fill: #ccc;
      }

      .cls-6, .cls-7 {
        opacity: 0.7;
      }

      .cls-21, .cls-22, .cls-8 {
        fill: #00024d;
      }

      .cls-10 {
        fill: #febd1b;
      }

      .cls-14 {
        fill: #f2f2f2;
      }

      .cls-15 {
        fill: #2f2e41;
      }

      .cls-16 {
        fill: #ffb8b8;
      }

      .cls-17 {
        fill: #575a89;
      }

      .cls-18 {
        opacity: 0.2;
      }

      .cls-19 {
        fill: #d0cde1;
      }

      .cls-20 {
        fill: #a0616a;
      }

      .cls-22 {
        stroke: #707070;
        opacity: 0.81;
      }

      .cls-23 {
        stroke: none;
      }

      .cls-24 {
        fill: none;
      }
    </style>
  </defs>
  <g id="mob-bg">
    <g id="Group_17" data-name="Group 17" transform="translate(0 398.734)">
      <ellipse id="Ellipse_1" data-name="Ellipse 1" class="cls-1" cx="30.574" cy="39.679" rx="30.574" ry="39.679" transform="translate(85.684 22.435)"/>
      <path id="Path_5" data-name="Path 5" class="cls-2" d="M590.637,93.564H553.963V50.3Z" transform="translate(-295.846 -19.882)"/>
      <rect id="Rectangle_4" data-name="Rectangle 4" class="cls-3" width="184.492" height="330.795" transform="translate(114.583 72.267)"/>
      <rect id="Rectangle_5" data-name="Rectangle 5" class="cls-4" width="21.705" height="59.356" transform="translate(132.99 95.46)"/>
      <rect id="Rectangle_6" data-name="Rectangle 6" class="cls-4" width="21.705" height="59.356" transform="translate(166.563 95.46)"/>
      <rect id="Rectangle_7" data-name="Rectangle 7" class="cls-4" width="21.705" height="59.356" transform="translate(130.129 179.589)"/>
      <rect id="Rectangle_8" data-name="Rectangle 8" class="cls-4" width="21.705" height="59.356" transform="translate(166.563 179.589)"/>
      <rect id="Rectangle_9" data-name="Rectangle 9" class="cls-4" width="21.705" height="59.356" transform="translate(130.129 257.432)"/>
      <rect id="Rectangle_10" data-name="Rectangle 10" class="cls-4" width="21.705" height="59.356" transform="translate(165.745 256.371)"/>
      <rect id="Rectangle_11" data-name="Rectangle 11" class="cls-5" width="21.705" height="59.356" transform="translate(197.292 343.839)"/>
      <rect id="Rectangle_12" data-name="Rectangle 12" class="cls-4" width="21.705" height="59.356" transform="translate(230.085 256.371)"/>
      <rect id="Rectangle_13" data-name="Rectangle 13" class="cls-6" width="21.705" height="59.356" transform="translate(266.518 256.371)"/>
      <rect id="Rectangle_14" data-name="Rectangle 14" class="cls-4" width="21.705" height="59.356" transform="translate(230.902 178.961)"/>
      <rect id="Rectangle_15" data-name="Rectangle 15" class="cls-6" width="21.705" height="59.356" transform="translate(267.335 178.961)"/>
      <rect id="Rectangle_16" data-name="Rectangle 16" class="cls-4" width="21.705" height="59.356" transform="translate(230.902 95.46)"/>
      <rect id="Rectangle_17" data-name="Rectangle 17" class="cls-6" width="21.705" height="59.356" transform="translate(267.335 95.46)"/>
      <rect id="Rectangle_18" data-name="Rectangle 18" class="cls-2" width="184.492" height="9.054" transform="translate(114.583 148.725)"/>
      <rect id="Rectangle_19" data-name="Rectangle 19" class="cls-2" width="184.492" height="5.03" transform="translate(114.583 219.148)"/>
      <rect id="Rectangle_20" data-name="Rectangle 20" class="cls-2" width="184.492" height="5.03" transform="translate(114.583 203.051)"/>
      <rect id="Rectangle_21" data-name="Rectangle 21" class="cls-2" width="40.241" height="3.876" transform="translate(132.8 280.516) rotate(90)"/>
      <rect id="Rectangle_22" data-name="Rectangle 22" class="cls-2" width="40.241" height="3.876" transform="translate(154.505 280.515) rotate(90)"/>
      <rect id="Rectangle_23" data-name="Rectangle 23" class="cls-2" width="40.241" height="3.876" transform="translate(176.21 280.516) rotate(90)"/>
      <rect id="Rectangle_24" data-name="Rectangle 24" class="cls-2" width="40.241" height="3.876" transform="translate(197.915 280.515) rotate(90)"/>
      <rect id="Rectangle_25" data-name="Rectangle 25" class="cls-2" width="40.241" height="3.876" transform="translate(219.62 280.516) rotate(90)"/>
      <rect id="Rectangle_26" data-name="Rectangle 26" class="cls-2" width="40.241" height="3.876" transform="translate(241.325 280.516) rotate(90)"/>
      <rect id="Rectangle_27" data-name="Rectangle 27" class="cls-2" width="40.241" height="3.876" transform="translate(263.03 280.516) rotate(90)"/>
      <rect id="Rectangle_28" data-name="Rectangle 28" class="cls-7" width="40.241" height="3.876" transform="translate(284.735 280.516) rotate(90)"/>
      <rect id="Rectangle_29" data-name="Rectangle 29" class="cls-2" width="40.241" height="3.876" transform="translate(133.188 204.057) rotate(90)"/>
      <rect id="Rectangle_30" data-name="Rectangle 30" class="cls-2" width="40.241" height="3.876" transform="translate(154.893 204.057) rotate(90)"/>
      <rect id="Rectangle_31" data-name="Rectangle 31" class="cls-2" width="40.241" height="3.876" transform="translate(176.598 204.057) rotate(90)"/>
      <rect id="Rectangle_32" data-name="Rectangle 32" class="cls-2" width="40.241" height="3.876" transform="translate(198.303 204.057) rotate(90)"/>
      <rect id="Rectangle_33" data-name="Rectangle 33" class="cls-2" width="40.241" height="3.876" transform="translate(220.008 204.057) rotate(90)"/>
      <rect id="Rectangle_34" data-name="Rectangle 34" class="cls-2" width="40.241" height="3.876" transform="translate(241.712 204.057) rotate(90)"/>
      <rect id="Rectangle_35" data-name="Rectangle 35" class="cls-2" width="40.241" height="3.876" transform="translate(263.417 204.057) rotate(90)"/>
      <rect id="Rectangle_36" data-name="Rectangle 36" class="cls-7" width="40.241" height="3.876" transform="translate(285.122 204.057) rotate(90)"/>
      <rect id="Rectangle_37" data-name="Rectangle 37" class="cls-2" width="40.241" height="3.876" transform="translate(133.188 114.52) rotate(90)"/>
      <rect id="Rectangle_38" data-name="Rectangle 38" class="cls-2" width="40.241" height="3.876" transform="translate(154.893 114.52) rotate(90)"/>
      <rect id="Rectangle_39" data-name="Rectangle 39" class="cls-2" width="40.241" height="3.876" transform="translate(176.598 114.52) rotate(90)"/>
      <rect id="Rectangle_40" data-name="Rectangle 40" class="cls-2" width="40.241" height="3.876" transform="translate(198.303 114.52) rotate(90)"/>
      <rect id="Rectangle_41" data-name="Rectangle 41" class="cls-2" width="40.241" height="3.876" transform="translate(220.008 114.52) rotate(90)"/>
      <rect id="Rectangle_42" data-name="Rectangle 42" class="cls-2" width="40.241" height="3.876" transform="translate(241.712 114.52) rotate(90)"/>
      <rect id="Rectangle_43" data-name="Rectangle 43" class="cls-2" width="40.241" height="3.876" transform="translate(263.418 114.52) rotate(90)"/>
      <rect id="Rectangle_44" data-name="Rectangle 44" class="cls-7" width="40.241" height="3.876" transform="translate(285.122 114.52) rotate(90)"/>
      <rect id="Rectangle_45" data-name="Rectangle 45" class="cls-2" width="184.492" height="5.03" transform="translate(114.583 128.605)"/>
      <rect id="Rectangle_46" data-name="Rectangle 46" class="cls-2" width="184.492" height="5.03" transform="translate(114.583 112.508)"/>
      <rect id="Rectangle_47" data-name="Rectangle 47" class="cls-2" width="184.492" height="9.054" transform="translate(114.583 236.25)"/>
      <rect id="Rectangle_48" data-name="Rectangle 48" class="cls-2" width="201.471" height="13.492" transform="translate(106.094 68.545)"/>
      <path id="Path_6" data-name="Path 6" class="cls-4" d="M318.488,581.434V568.6H306.62v12.835h11.868Z" transform="translate(-163.752 -224.76)"/>
      <path id="Path_7" data-name="Path 7" class="cls-4" d="M317.5,606.8H306.62v12.835h11.868V606.8Z" transform="translate(-163.752 -239.862)"/>
      <rect id="Rectangle_49" data-name="Rectangle 49" class="cls-4" width="11.867" height="12.835" transform="translate(162.648 343.839)"/>
      <rect id="Rectangle_50" data-name="Rectangle 50" class="cls-4" width="11.867" height="12.835" transform="translate(162.648 366.941)"/>
      <path id="Path_8" data-name="Path 8" class="cls-4" d="M526.221,581.434V568.6H514.353v12.835h11.867Z" transform="translate(-274.692 -224.76)"/>
      <path id="Path_9" data-name="Path 9" class="cls-4" d="M525.231,606.8H514.353v12.835h11.867V606.8Z" transform="translate(-274.692 -239.862)"/>
      <rect id="Rectangle_51" data-name="Rectangle 51" class="cls-4" width="11.867" height="12.835" transform="translate(259.439 343.839)"/>
      <rect id="Rectangle_52" data-name="Rectangle 52" class="cls-4" width="11.867" height="12.835" transform="translate(259.439 366.941)"/>
      <rect id="Rectangle_53" data-name="Rectangle 53" class="cls-2" width="184.492" height="9.054" transform="translate(114.583 312.709)"/>
      <rect id="Rectangle_54" data-name="Rectangle 54" class="cls-2" width="184.492" height="5.03" transform="translate(114.583 296.612)"/>
      <rect id="Rectangle_55" data-name="Rectangle 55" class="cls-2" width="184.492" height="5.03" transform="translate(114.583 280.516)"/>
      <path id="Path_10" data-name="Path 10" class="cls-8" d="M493.337,731.906q0-.42-.009-.836c-.166-7.416-5.834-9.427-8.873-5.917a4.4,4.4,0,0,0-6.913,0c-3.052-3.455-8.607-1.587-8.791,5.745q-.01.415-.011.836.013,2.313.218,4.614h24.164Q493.319,734.136,493.337,731.906Z" transform="translate(-322.9 -333.156)"/>
      <path id="Path_11" data-name="Path 11" class="cls-8" d="M699.447,731.906q0-.42-.009-.836c-.166-7.416-5.834-9.427-8.873-5.917a4.4,4.4,0,0,0-6.913,0c-3.052-3.455-8.607-1.587-8.791,5.745q-.01.415-.011.836.013,2.313.218,4.614h24.164Q699.429,734.136,699.447,731.906Z" transform="translate(-432.974 -333.156)"/>
      <path id="Path_12" data-name="Path 12" class="cls-9" d="M852.031,605.65h-3.737l1.245-94.739h1.246Z" transform="translate(-453.035 -201.957)"/>
      <path id="Path_13" data-name="Path 13" class="cls-9" d="M991.613,460.7l6.032-12.1q-2.683-9.62-6.189-18.8l-3.9,4.089,3.089-6.195c-2.943-7.52-5.26-12.257-5.26-12.257s-12.1,24.742-16.14,50.939l7.741,15.526-8.57-8.983c-.305,3.052-.462,6.125-.47,9.2,0,31.025,7.808,56.177,17.439,56.177s17.439-25.151,17.439-56.177a122.763,122.763,0,0,0-3.989-28.989Z" transform="translate(-589.503 -211.392)"/>
      <path id="Path_14" data-name="Path 14" class="cls-10" d="M736.7,448.447H656.97v76.185h.048V539.8l11.687-15.168H736.7Z" transform="translate(-350.858 -177.266)"/>
      <rect id="Rectangle_56" data-name="Rectangle 56" class="cls-9" width="70.732" height="3.628" transform="translate(214.285 433.888)"/>
      <rect id="Rectangle_57" data-name="Rectangle 57" class="cls-9" width="71.114" height="3.628" transform="translate(342.885 433.888)"/>
      <rect id="Rectangle_58" data-name="Rectangle 58" class="cls-9" width="70.824" height="3.628" transform="translate(85.684 433.888)"/>
      <rect id="Rectangle_59" data-name="Rectangle 59" class="cls-11" width="413.709" height="1.012" transform="translate(0 403.113)"/>
      <rect id="Rectangle_60" data-name="Rectangle 60" class="cls-11" width="8.329" height="1.717" transform="matrix(-1, -0.001, 0.001, -1, 332.809, 420.592)"/>
      <path id="Path_15" data-name="Path 15" class="cls-10" d="M722.892,743.877l1.719.516,65.311.045.587-1.776a22.828,22.828,0,0,0,1.015-9.692c-.281-2.453-.986-4.89-2.587-5.948l-2.9-25.053-36.133-.084-13.98,14.634a12.39,12.39,0,0,0-10.177,5.634,16.164,16.164,0,0,0-2.19,7.483l-.141,3.011Z" transform="translate(-458.631 -324.621)"/>
      <ellipse id="Ellipse_2" data-name="Ellipse 2" class="cls-11" cx="8.065" cy="10.466" rx="8.065" ry="10.466" transform="translate(270.541 408.37)"/>
      <ellipse id="Ellipse_3" data-name="Ellipse 3" class="cls-12" cx="4.245" cy="5.509" rx="4.245" ry="5.509" transform="translate(274.361 413.328)"/>
      <ellipse id="Ellipse_4" data-name="Ellipse 4" class="cls-11" cx="8.065" cy="10.466" rx="8.065" ry="10.466" transform="translate(310.336 408.398)"/>
      <ellipse id="Ellipse_5" data-name="Ellipse 5" class="cls-12" cx="4.245" cy="5.509" rx="4.245" ry="5.509" transform="translate(314.156 413.356)"/>
      <path id="Path_16" data-name="Path 16" class="cls-13" d="M607.043,638.63l19.509.011h2.381l4.021,0v-.381l0-4.588,0-5.153h-2.674l-2.382,0-4.218,0H621.3l-4.87,0Z" transform="translate(-324.194 -248.443)"/>
      <path id="Path_17" data-name="Path 17" class="cls-13" d="M669.466,638.658l10.31.007,0-2.626v-4.589l0-2.908h-1.51l-2.381,0-6.422,0Z" transform="translate(-357.531 -248.452)"/>
      <rect id="Rectangle_61" data-name="Rectangle 61" class="cls-11" width="1.322" height="3.26" transform="matrix(-1, -0.001, 0.001, -1, 308.755, 401.015)"/>
      <rect id="Rectangle_62" data-name="Rectangle 62" class="cls-11" width="1.715" height="2.512" transform="matrix(-0.001, 1, -1, -0.001, 288.137, 393.108)"/>
      <path id="Path_18" data-name="Path 18" class="cls-11" d="M0,0H.145C1.671,0,2.909,1.606,2.909,3.587h0c0,1.981-1.237,3.586-2.763,3.586H0V0Z" transform="matrix(-1, -0.001, 0.001, -1, 287.208, 393.862)"/>
      <path id="Path_19" data-name="Path 19" class="cls-11" d="M724.02,745.9c2.064.291,3.991-1.386,4.566-3.975s-.368-5.34-2.234-6.519a16.164,16.164,0,0,0-2.19,7.483Z" transform="translate(-459.233 -337.87)"/>
      <path id="Path_20" data-name="Path 20" class="cls-14" d="M651.813,628.524l5.051,9.744,0-4.588-2.672-5.153Z" transform="translate(-348.104 -248.448)"/>
      <path id="Path_21" data-name="Path 21" class="cls-14" d="M683.255,628.542l3.888,7.5v-4.589l-1.507-2.907Z" transform="translate(-364.895 -248.455)"/>
      <path id="Path_22" data-name="Path 22" class="cls-14" d="M637.649,628.518l5.248,10.125h2.381l-5.248-10.125Z" transform="translate(-340.539 -248.445)"/>
      <path id="Path_23" data-name="Path 23" class="cls-3" d="M543.669,78.646l-.054.038a3.2,3.2,0,0,1-3.8.017l-.1-.07a3.211,3.211,0,0,0-3.795.017l-.05.036a3.2,3.2,0,0,1-3.8.017l-.1-.072a3.192,3.192,0,0,0-3.758-.009c-1.767,1.235-4.156,3.347-4.145,5.731q0,.141.012.282c.206,2.477,6.43,3.108,9.849,1.94a13.527,13.527,0,0,0,7.744,0c3.4,1.186,9.755.506,9.941-2q.01-.141.01-.282c-.011-2.386-2.421-4.475-4.2-5.693A3.188,3.188,0,0,0,543.669,78.646Z" transform="translate(-352.446 -78.012)"/>
      <path id="Path_24" data-name="Path 24" class="cls-9" d="M911.669,213.862l-.054.038a3.2,3.2,0,0,1-3.8.017l-.1-.07a3.211,3.211,0,0,0-3.795.017l-.05.036a3.2,3.2,0,0,1-3.8.017l-.1-.072a3.192,3.192,0,0,0-3.758-.009c-1.767,1.235-4.156,3.347-4.145,5.731q0,.141.012.282c.205,2.477,6.43,3.108,9.849,1.94a13.527,13.527,0,0,0,7.744,0c3.4,1.186,9.755.506,9.941-2q.01-.141.01-.282c-.01-2.386-2.42-4.475-4.2-5.693A3.188,3.188,0,0,0,911.669,213.862Z" transform="translate(-548.978 -131.461)"/>
      <path id="Path_25" data-name="Path 25" class="cls-9" d="M267.239,221.41l-.054.038a3.2,3.2,0,0,1-3.8.017l-.1-.07a3.211,3.211,0,0,0-3.795.017l-.05.036a3.2,3.2,0,0,1-3.8.017l-.1-.072a3.191,3.191,0,0,0-3.758-.009c-1.767,1.235-4.156,3.347-4.145,5.731q0,.141.012.282c.205,2.477,6.429,3.108,9.849,1.94a13.527,13.527,0,0,0,7.745,0c3.4,1.186,9.755.506,9.941-2q.01-.141.01-.282c-.01-2.386-2.421-4.476-4.2-5.693A3.188,3.188,0,0,0,267.239,221.41Z" transform="translate(-204.817 -134.445)"/>
      <rect id="Rectangle_63" data-name="Rectangle 63" class="cls-11" width="8.329" height="1.716" transform="translate(42.997 439.432)"/>
      <path id="Path_26" data-name="Path 26" class="cls-10" d="M316.318,777.878l-1.718.516-65.311.045-.587-1.776a22.831,22.831,0,0,1-1.015-9.692c.281-2.453.986-4.89,2.587-5.948l2.9-25.053,36.133-.084,13.98,14.634a12.391,12.391,0,0,1,10.177,5.635,16.165,16.165,0,0,1,2.19,7.483l.141,3.011Z" transform="translate(-204.772 -338.062)"/>
      <ellipse id="Ellipse_6" data-name="Ellipse 6" class="cls-11" cx="8.065" cy="10.466" rx="8.065" ry="10.466" transform="translate(89.137 428.931)"/>
      <ellipse id="Ellipse_7" data-name="Ellipse 7" class="cls-12" cx="4.245" cy="5.509" rx="4.245" ry="5.509" transform="translate(92.957 433.889)"/>
      <ellipse id="Ellipse_8" data-name="Ellipse 8" class="cls-11" cx="8.065" cy="10.466" rx="8.065" ry="10.466" transform="translate(49.343 428.959)"/>
      <ellipse id="Ellipse_9" data-name="Ellipse 9" class="cls-12" cx="4.245" cy="5.509" rx="4.245" ry="5.509" transform="translate(53.163 433.916)"/>
      <path id="Path_27" data-name="Path 27" class="cls-13" d="M169.8,672.63l-19.509.012h-2.381l-4.021,0v-.381l0-4.589,0-5.152h2.675l2.381,0,4.218,0h2.381l4.87,0Z" transform="translate(-76.841 -261.883)"/>
      <path id="Path_28" data-name="Path 28" class="cls-13" d="M125.258,672.659l-10.31.007,0-2.626v-4.589l0-2.907h1.51l2.381,0,6.422,0Z" transform="translate(-61.385 -261.893)"/>
      <rect id="Rectangle_64" data-name="Rectangle 64" class="cls-11" width="1.322" height="3.26" transform="translate(67.05 418.313)"/>
      <rect id="Rectangle_65" data-name="Rectangle 65" class="cls-11" width="1.716" height="2.512" transform="matrix(0.001, 1, -1, 0.001, 90.184, 413.663)"/>
      <path id="Path_29" data-name="Path 29" class="cls-11" d="M190.143,673.457h.145c1.526,0,2.763,1.606,2.763,3.586h0c0,1.98-1.237,3.586-2.763,3.586h-.145v-7.172Z" transform="translate(-101.546 -266.209)"/>
      <path id="Path_30" data-name="Path 30" class="cls-11" d="M388.587,779.9c-2.064.292-3.99-1.386-4.566-3.975s.368-5.34,2.234-6.519a16.164,16.164,0,0,1,2.19,7.483Z" transform="translate(-277.566 -351.31)"/>
      <path id="Path_31" data-name="Path 31" class="cls-14" d="M148.943,662.524l-5.051,9.745,0-4.589,2.672-5.152Z" transform="translate(-76.844 -261.888)"/>
      <path id="Path_32" data-name="Path 32" class="cls-14" d="M118.836,662.543l-3.888,7.5v-4.589l1.507-2.907Z" transform="translate(-61.389 -261.895)"/>
      <path id="Path_33" data-name="Path 33" class="cls-14" d="M160.154,662.518l-5.248,10.126h-2.381l5.248-10.126Z" transform="translate(-81.456 -261.885)"/>
      <path id="Path_34" data-name="Path 34" class="cls-13" d="M724.859,513.955l-10.181-16.988,5.92-5.976,4.82,8.043L741.7,476.725l5.445,6.7Z" transform="translate(-381.677 -188.444)"/>
      <path id="Path_35" data-name="Path 35" class="cls-10" d="M6.34,480.325H86.065V556.51h-.048v15.168L74.329,556.51H6.34Z" transform="translate(-3.386 -189.867)"/>
      <path id="Path_36" data-name="Path 36" class="cls-13" d="M75.373,548.833,65.192,531.845l5.921-5.977,4.82,8.044L92.217,511.6l5.446,6.695Z" transform="translate(-34.816 -202.23)"/>
      <g id="Group_15" data-name="Group 15" transform="translate(0 352.087)">
        <path id="Path_126" data-name="Path 126" class="cls-15" d="M296.877,635.8s0,19.18,3.392,24.211c0,0,.727,2.516.969,3.459a15.757,15.757,0,0,0,.485,1.572V666.3s6.541-.943,7.268-3.144l-1.211-1.887s-.242-.315,0-1.258a.813.813,0,0,0-.027-.658.469.469,0,0,0-.458-.285l-1.7-5.031.242-20.753-1.211-28.614-10.417-.629Z" transform="translate(-224.778 -535.584)"/>
        <path id="Path_127" data-name="Path 127" class="cls-15" d="M310.507,703.052s-1.7,6.6,0,6.918,16.474.629,16.231-1.887-5.087-2.2-5.087-2.2l-5.087-4.088Z" transform="translate(-233.346 -574.226)"/>
        <path id="Path_128" data-name="Path 128" class="cls-15" d="M261.915,605.08a17.822,17.822,0,0,0,1.454,8.49c1.938,4.4.727,19.18.727,19.18l-17.2,19.495s3.392,7.547,4.6,7.232,20.35-20.438,20.35-20.438l7.51-32.7Z" transform="translate(-196.994 -535.996)"/>
        <path id="Path_129" data-name="Path 129" class="cls-15" d="M242.167,681.7s-5.2,1.676-4.5,3.7,8.41,18.4,9.917,16.784-1.291-6.755-1.291-6.755l-.064-7.766Z" transform="translate(-192.03 -566.282)"/>
        <ellipse id="Ellipse_19" data-name="Ellipse 19" class="cls-16" cx="5.572" cy="7.232" rx="5.572" ry="7.232" transform="translate(68.797 3.367)"/>
        <path id="Path_130" data-name="Path 130" class="cls-16" d="M290,512.584l.246,9.306,4.688,2.4s.46-9.529,1.109-10.057S290,512.584,290,512.584Z" transform="translate(-220.017 -499.433)"/>
        <path id="Path_131" data-name="Path 131" class="cls-17" d="M286.882,528.493s-6.541-8.49-8.237-8.175-1.7,1.258-1.7,1.886.485.943,0,1.258-.969,0-.969.943-4.361,10.376-2.907,20.753,3.149,15.407,2.423,21.067-.242,6.917-.242,6.917,18.17,1.886,18.412-.315-.727-.943.485-2.515.727-1.572.727-2.516S289.547,528.493,286.882,528.493Z" transform="translate(-210.817 -502.487)"/>
        <path id="Path_132" data-name="Path 132" class="cls-16" d="M295.772,602.71s2.907,9.119,5.087,6.918-.969-9.748-.969-9.748Z" transform="translate(-223.099 -533.94)"/>
        <path id="Path_133" data-name="Path 133" class="cls-17" d="M276.055,534.845s-5.692.846-3.573,14.415,10.356,29.291,10.356,29.291l5.572-3.459-7.268-18.552,1.7-11.634S283.808,533.9,276.055,534.845Z" transform="translate(-210.408 -508.21)"/>
        <path id="Path_134" data-name="Path 134" class="cls-18" d="M151.561,401.423l7.995,17.294-.726.943Z" transform="translate(-80.947 -352.934)"/>
        <path id="Path_135" data-name="Path 135" class="cls-18" d="M142.479,414.75l6.412,13.637h-2.18Z" transform="translate(-76.096 -358.202)"/>
        <path id="Path_136" data-name="Path 136" class="cls-15" d="M287.687,505.782a6.71,6.71,0,0,1,1.463-.566c1.792-.786,2.872-3.153,2.543-5.571a3.642,3.642,0,0,1-.092-.918,1.533,1.533,0,0,1,1.126-1.287,8.848,8.848,0,0,0,1.568-.388,3.136,3.136,0,0,0,1.386-2.472,6.378,6.378,0,0,0-.526-3.078l-.188.7a2.744,2.744,0,0,1-.613-1.19,1.389,1.389,0,0,0-.962,1c-.3.231-.344-.716-.677-.855a.5.5,0,0,0-.415.133c-.67.406-1.449.059-2.168-.166a6.346,6.346,0,0,0-3.788-.006,4.291,4.291,0,0,0-2.239,1.495,7.666,7.666,0,0,0-1.047,2.336,17.066,17.066,0,0,0-.845,6.534,10.735,10.735,0,0,0,1.679,4.9c.479.717,2.044,3.219,2.9,2.792C287.874,508.645,286.417,506.653,287.687,505.782Z" transform="translate(-215.839 -490.837)"/>
        <path id="Path_454" data-name="Path 454" class="cls-18" d="M.039,1.829,22.582.055l-.034.357L.005,2.186Z" transform="translate(72.769 102.409) rotate(-69.123)"/>
        <ellipse id="Ellipse_20" data-name="Ellipse 20" class="cls-19" cx="0.345" cy="0.447" rx="0.345" ry="0.447" transform="translate(75.686 26.838)"/>
        <line id="Line_1" data-name="Line 1" class="cls-19" x2="2.929" y2="12.301" transform="translate(76.031 27.285)"/>
        <path id="Path_137" data-name="Path 137" class="cls-19" d="M305.709,548.337a.184.184,0,0,1-.165-.158l-2.929-12.3a.241.241,0,0,1,.114-.28c.091-.036.187.03.215.147l2.929,12.3a.279.279,0,0,1-.026.2A.164.164,0,0,1,305.709,548.337Z" transform="translate(-226.75 -508.526)"/>
        <ellipse id="Ellipse_21" data-name="Ellipse 21" class="cls-15" cx="5.819" cy="7.552" rx="5.819" ry="7.552" transform="translate(368.23 7.236)"/>
        <path id="Path_138" data-name="Path 138" class="cls-20" d="M953.07,590.944l-.882,2.29s-2.823,5.954-.882,6.641,2.558-4.466,2.558-4.466l.353-2.748Z" transform="translate(-587.291 -530.408)"/>
        <path id="Path_139" data-name="Path 139" class="cls-19" d="M818.6,402.033l-2.206,7.557-2.205,5.267,2.735,2.29,2.205-5.038,2.647-7.9Z" transform="translate(-449.293 -353.175)"/>
        <path id="Path_140" data-name="Path 140" class="cls-20" d="M976.891,625.424l4.411,6.068,7.763,17.061,3.352-1.374-3.968-10.191s-2.294-7.786-3.44-8.817-3.088-7.786-3.088-7.786L979.8,618.21Z" transform="translate(-601.32 -541.186)"/>
        <path id="Path_141" data-name="Path 141" class="cls-20" d="M945.152,635.406l-.353,1.946s-1.147,6.069-2.911,8.816l-4.234,9.5-3.176-1.374,6.264-19.236Z" transform="translate(-578.668 -547.847)"/>
        <ellipse id="Ellipse_22" data-name="Ellipse 22" class="cls-20" cx="4.764" cy="6.183" rx="4.764" ry="6.183" transform="translate(368.293 11.244)"/>
        <path id="Path_142" data-name="Path 142" class="cls-20" d="M974.485,524.673l.617,6.641-3.97,2.519s0-5.725-1.059-7.213Z" transform="translate(-597.679 -504.212)"/>
        <path id="Path_143" data-name="Path 143" class="cls-20" d="M1003.611,595.489l.441,1.947s2.911,7.443.441,7.443-2.911-6.87-2.911-6.87l-.265-1.718Z" transform="translate(-614.366 -532.204)"/>
        <path id="Path_144" data-name="Path 144" class="cls-15" d="M954.3,582.613l.618,5.611-7.5,20.5-.441,5.954L961,616.963l3.088-11.107,4.94,8.244-2.823-8.473s-.882-5.725-.618-7.213-.176-8.931-.97-10.763S954.3,582.613,954.3,582.613Z" transform="translate(-585.342 -527.115)"/>
        <path id="Path_145" data-name="Path 145" class="cls-15" d="M996.812,667.189l4.235-1.832,1.323,2.748s2.558.916,2.47,3.32a52.782,52.782,0,0,0,.441,6.526l-1.853.229-.706-4.694-3.617,5.61s-6.44.458-6.7-.916,4.587-2.862,4.587-2.862l.794-4.924Z" transform="translate(-609.598 -559.822)"/>
        <path id="Path_146" data-name="Path 146" class="cls-15" d="M923.189,665.736l3.882,1.6v1.145a9.451,9.451,0,0,1,.97,4.236c-.176,1.947-.97,6.641-.97,6.641h-2.029l.088-4.351-4.058,4.351s-7.234-.687-7.234-2.176,5.558-2.519,5.558-2.519Z" transform="translate(-567.645 -559.972)"/>
        <path id="Path_147" data-name="Path 147" class="cls-19" d="M966.115,535.11s3.617-4.694,5.293-3.55v2.061s2.47,1.488,2.558,3.778,2.647,23.129,2.647,23.129l6,27.137s-1.853,3.779-8.645-.458l-4.234-18.663s4.5,21.068,2.294,20.724-10.851-26.449-10.851-26.449l.617-12.366s-1.411-5.382,1.411-9.046Z" transform="translate(-592.927 -506.863)"/>
        <path id="Path_148" data-name="Path 148" class="cls-19" d="M981.621,538.685s1.5.687,2.558,3.664,6.352,23.931,6.352,23.931l1.411,7.443-3.97,1.26-1.941-7.672-7.234-17.4S977.651,540.746,981.621,538.685Z" transform="translate(-602.256 -509.751)"/>
        <path id="Path_149" data-name="Path 149" class="cls-15" d="M970.667,505.144a4.709,4.709,0,0,0-1.575-3.529,7.074,7.074,0,0,0,.6-4.05,2.721,2.721,0,0,0-1.794-2.084,3.616,3.616,0,0,0-1.394.023l-2.174.32a3.939,3.939,0,0,0-2.037.712,3.3,3.3,0,0,0-1.092,2.369,3.553,3.553,0,0,0,.82,2.547,11.181,11.181,0,0,0-3.229,5.14,5.7,5.7,0,0,1,4.108-1.908c2.116-.149,3.939,1.915,4.113,4.656a12.126,12.126,0,0,0,.134,1.971,1.225,1.225,0,0,0,1.1,1.134,4.438,4.438,0,0,1-.2-2.442l0-.013a.641.641,0,0,1,.309-.344.708.708,0,0,1,.731.055,1.154,1.154,0,0,1,.452.748c.169.841.439,1.915.675,1.63.309-.373.179-3.663.262-4.173A12.356,12.356,0,0,0,970.667,505.144Z" transform="translate(-591.652 -492.65)"/>
        <path id="Path_150" data-name="Path 150" class="cls-19" d="M972.751,505.537s-4.781.4-7.068-.135" transform="translate(-595.334 -496.594)"/>
        <path id="Path_151" data-name="Path 151" class="cls-15" d="M980,500.609a7.073,7.073,0,0,0,.6-4.05,3.167,3.167,0,0,0-.834-1.522,2.969,2.969,0,0,1,1.275,1.865,7.072,7.072,0,0,1-.6,4.05C980.057,500.879,980.964,501.277,980,500.609Z" transform="translate(-602.855 -492.497)"/>
        <path id="Path_152" data-name="Path 152" class="cls-18" d="M837.194,387.737l6.881,15.8,2.647,8.587-3.705-8.244Z" transform="translate(-461.579 -347.524)"/>
        <path id="Path_153" data-name="Path 153" class="cls-21" d="M253.747,705.849s-2.157,6.094-3.909,7.8c-1.773-1.713-3.973-7.8-3.973-7.8s-2.157,6.094-3.909,7.8c-1.773-1.713-3.973-7.8-3.973-7.8s-6.126,8.129-6.109,11.978q0,.144.013.287c.209,2.52,6.543,3.163,10.022,1.975a13.766,13.766,0,0,0,7.881,0c3.465,1.207,9.927.515,10.116-2.034.007-.1.01-.192.01-.287C259.9,713.919,253.747,705.849,253.747,705.849Z" transform="translate(-188.972 -575.828)"/>
        <path id="Path_154" data-name="Path 154" class="cls-9" d="M529.987,705.849s-2.157,6.094-3.908,7.8c-1.773-1.713-3.973-7.8-3.973-7.8s-2.157,6.094-3.909,7.8c-1.773-1.713-3.973-7.8-3.973-7.8s-6.126,8.129-6.109,11.978q0,.144.012.287c.209,2.52,6.543,3.163,10.022,1.975a13.766,13.766,0,0,0,7.881,0c3.465,1.207,9.927.515,10.116-2.034.007-.1.01-.192.01-.287C536.141,713.919,529.987,705.849,529.987,705.849Z" transform="translate(-342.699 -575.828)"/>
        <path id="Path_155" data-name="Path 155" class="cls-21" d="M804.438,705.849s-2.157,6.094-3.908,7.8c-1.773-1.713-3.973-7.8-3.973-7.8s-2.157,6.094-3.909,7.8c-1.773-1.713-3.973-7.8-3.973-7.8s-6.126,8.129-6.109,11.978q0,.144.013.287c.209,2.52,6.543,3.163,10.022,1.975a13.766,13.766,0,0,0,7.881,0c3.465,1.207,9.927.515,10.116-2.034.007-.1.01-.192.01-.287C810.592,713.919,804.438,705.849,804.438,705.849Z" transform="translate(-493.893 -575.828)"/>
        <rect id="Rectangle_156" data-name="Rectangle 156" class="cls-11" width="414" height="1.012" transform="translate(0 143.856)"/>
      </g>
    </g>
    <g id="Rectangle_202" data-name="Rectangle 202" class="cls-22">
      <rect class="cls-23" width="414" height="896"/>
      <rect class="cls-24" x="0.5" y="0.5" width="413" height="895"/>
    </g>
  </g>
</svg>
