<svg xmlns="http://www.w3.org/2000/svg" width="1600" height="628.968" viewBox="0 0 1600 628.968">
  <defs>
    <style>
      .cls-1 {
        fill: #febd1b;
      }

      .cls-2 {
        fill: #00024d;
        opacity: 0.8;
      }

      .cls-3 {
        fill: #ffb0a3;
      }
    </style>
  </defs>
  <g id="Group_10" data-name="Group 10" transform="translate(-198 -179)">
    <g id="read-more-solutions-bg" transform="translate(198 179)">
      <g id="Group_9" data-name="Group 9">
        <path id="Path_37" data-name="Path 37" class="cls-1" d="M551.045,623.864c31.486-20.676,49.545-72,8.268-144.081-51.189-86.778-88.337-34.511-123.792-6.615C393.611,507.5,391.05,543.834,425.6,567.4,472.649,595.382,510.656,645.013,551.045,623.864Z"/>
      </g>
      <rect id="Rectangle_65" data-name="Rectangle 65" class="cls-2" width="1600" height="590"/>
      <path id="Path_38" data-name="Path 38" class="cls-3" d="M523.269,501.654a4.472,4.472,0,0,1-3.263-5.53l1.753-6.635,1.778-6.637a4.743,4.743,0,0,1,5.654-3.336,110.982,110.982,0,0,0,130.42-75.3,4.743,4.743,0,0,1,5.717-3.228l6.637,1.778,6.652,1.782a4.472,4.472,0,0,1,3.173,5.6,133.843,133.843,0,0,1-158.521,91.509Z"/>
    </g>
  </g>
</svg>
